<svg width="295" height="341" viewBox="0 0 295 341" fill="none" xmlns="http://www.w3.org/2000/svg">
<g id="HOMEAPPROVED-NEWCLIENTblack">
<g id="ABOUT">
<g id="Group 10732">
<g id="Group">
<path id="Vector" d="M35.8414 321.251C35.8414 323.121 36.1367 324.4 36.8256 324.991C37.5146 325.68 38.7941 325.975 40.8609 326.073V326.467C31.9046 326.369 26.9835 326.369 26.0977 326.467V326.073C27.7709 325.975 28.8535 325.68 29.3456 324.991C29.8377 324.302 30.133 323.121 30.133 321.251L30.133 295.858C30.133 294.086 29.9361 293.004 29.444 292.512C28.9519 292.02 27.8693 291.724 26.1961 291.626V291.035C35.1525 291.035 40.0736 291.134 40.8609 291.134C44.6994 291.134 47.652 292.02 49.7189 293.791C51.7857 295.563 52.7699 297.925 52.7699 300.878C52.7699 302.157 52.5731 303.437 52.1794 304.618C51.7857 305.799 51.0968 306.98 50.1125 308.161C49.2267 309.342 47.8488 310.228 45.9788 310.917C44.2072 311.605 42.042 311.999 39.6799 311.999H35.8414L35.8414 321.251ZM35.8414 295.858L35.8414 311.605H39.1878C40.4672 311.605 41.6483 311.409 42.5341 311.015C43.4199 310.621 44.1088 310.228 44.6009 309.735C45.093 309.243 45.3883 308.456 45.5852 307.472C45.782 306.488 45.9788 305.602 45.9788 305.011C45.9788 304.421 46.0773 303.437 46.0773 302.157C46.0773 301.862 46.0773 301.665 46.0773 301.566C46.0773 300.09 46.0773 299.008 45.9788 298.122C45.8804 297.236 45.782 296.35 45.5852 295.464C45.3883 294.579 44.9946 293.791 44.6009 293.398C44.0104 292.807 43.3215 292.413 42.5341 292.118C41.7467 291.823 40.7625 291.626 39.5814 291.626C38.1051 291.626 37.1209 291.921 36.6288 292.413C36.1367 293.004 35.8414 294.086 35.8414 295.858Z" fill="white"/>
<path id="Vector_2" d="M77.6692 311.901L62.217 311.901C61.5281 320.759 63.6934 325.483 68.516 325.877C69.9923 325.975 71.4687 325.582 73.0434 324.597C74.6181 323.613 75.7992 322.038 76.4881 319.873C76.5866 319.873 76.685 319.873 76.7834 319.972C76.8818 320.07 76.9803 320.07 77.0787 320.07C76.3897 322.038 75.3071 323.613 73.7323 324.893C72.1576 326.074 70.386 326.763 68.3192 326.763C64.1855 326.763 60.9376 325.582 58.5754 323.219C56.3117 320.759 55.1307 317.609 55.1307 313.574C55.0323 309.933 56.2133 306.685 58.477 303.929C60.7407 301.173 63.9886 299.894 68.0239 299.894C69.3034 299.894 70.4844 300.09 71.5671 300.583C72.6497 300.976 73.7323 301.665 74.7166 302.551C75.7008 303.437 76.3897 304.716 76.9803 306.291C77.5708 307.866 77.7676 309.736 77.6692 311.901ZM72.8466 311.409C73.4371 308.456 73.2402 305.897 72.1576 303.83C71.1734 301.764 69.7955 300.681 68.1223 300.583C67.4334 300.484 66.7444 300.681 66.1539 301.173C65.5634 301.665 64.8744 302.453 64.1855 303.732C63.2012 305.405 62.6107 307.964 62.217 311.409L72.8466 311.409Z" fill="white"/>
<path id="Vector_3" d="M104.146 322.531C104.146 323.909 104.441 324.794 104.933 325.287C105.524 325.779 106.508 326.074 107.886 326.074V326.566L94.5992 326.566V326.074C95.8787 326.074 96.7644 325.877 97.355 325.483C97.9455 325.09 98.2408 324.401 98.3392 323.318L98.3392 314.952C98.3392 314.165 98.3392 313.279 98.3392 312.098C98.3392 310.917 98.3392 310.228 98.3392 309.637C98.3392 309.145 98.3392 308.555 98.3392 307.767C98.3392 307.079 98.3392 306.488 98.2408 306.193C98.1424 305.799 98.1424 305.405 98.0439 305.012C97.9455 304.52 97.8471 304.224 97.7487 303.831C97.6502 303.535 97.4534 303.24 97.355 302.945C96.8629 301.961 95.9771 301.469 94.8944 301.272C93.8118 301.075 92.6307 301.37 91.4497 302.059C90.0718 302.846 88.9892 304.126 88.3002 305.701C87.6112 307.374 87.2176 309.047 87.2176 310.917L87.2176 313.476C87.2176 314.755 87.2176 316.429 87.2176 318.495C87.2176 320.562 87.2176 321.94 87.2176 322.531C87.2176 323.909 87.5128 324.794 88.0049 325.287C88.5955 325.779 89.4813 326.074 90.9576 326.074V326.566H77.5723V326.074C78.9502 326.074 79.9344 325.779 80.5249 325.287C81.1154 324.794 81.3123 323.81 81.3123 322.531L81.3123 313.476L81.2139 305.602C81.2139 305.11 81.017 304.913 80.6233 304.913H80.3281V304.421C83.7728 304.126 85.8397 302.748 86.8239 300.287H87.2176L87.2176 306.39C87.5128 305.307 88.1034 304.224 88.9892 303.24C89.7765 302.256 90.5639 301.567 91.2528 301.173C92.7292 300.386 94.5008 299.992 96.5676 299.992C98.536 300.091 100.111 300.484 101.095 301.272C101.587 301.567 101.981 301.961 102.374 302.453C102.768 302.846 102.965 303.339 103.26 303.831C103.457 304.323 103.654 304.913 103.752 305.504C103.851 306.094 103.949 306.783 104.048 307.374C104.146 308.063 104.146 308.752 104.146 309.539C104.146 310.326 104.146 311.114 104.146 311.901C104.146 312.689 104.146 313.574 104.146 314.362L104.146 322.531Z" fill="white"/>
<path id="Vector_4" d="M116.546 300.385L116.546 322.53C116.546 323.317 116.546 323.809 116.645 324.203C116.743 324.597 116.743 324.892 116.94 325.089C117.038 325.286 117.334 325.384 117.629 325.286C117.924 325.187 118.318 324.991 118.81 324.597L118.908 324.695L119.007 324.794L119.105 324.892C117.727 325.876 116.349 326.368 114.972 326.368C112.905 326.368 111.625 325.581 111.035 324.105C111.035 324.006 110.936 323.809 110.936 323.514C110.838 323.219 110.838 322.825 110.838 322.333C110.838 321.841 110.838 321.349 110.739 320.758C110.739 320.266 110.739 319.479 110.641 318.593C110.641 317.707 110.641 316.822 110.641 316.034C110.641 315.247 110.641 314.164 110.641 312.885C110.641 311.507 110.641 310.326 110.641 309.243C110.641 308.16 110.641 306.783 110.641 305.011C110.641 303.239 110.641 301.665 110.641 300.287H108.082V299.795H110.641L110.739 297.334C110.739 296.842 110.543 296.645 110.05 296.645H109.755V296.153C113.102 295.858 115.267 294.48 116.251 291.921H116.645L116.645 299.795H119.204V300.287H116.546V300.385Z" fill="white"/>
<path id="Vector_5" d="M140.66 322.53C140.66 323.908 140.956 324.794 141.448 325.286C141.94 325.778 142.924 326.073 144.4 326.073V326.566L137.019 326.566C135.641 326.566 134.854 325.68 134.854 323.81C133.476 325.483 131.704 326.369 129.637 326.664C128.161 326.861 126.685 326.664 125.405 326.073C124.126 325.483 123.141 324.696 122.551 323.613C121.96 322.53 121.96 321.152 122.649 319.479C123.24 317.806 124.618 316.034 126.783 314.263C128.85 312.491 131.606 310.621 134.952 308.85C134.952 307.865 134.854 306.98 134.854 306.192C134.854 302.649 133.279 300.878 130.228 300.878C128.358 300.878 126.586 301.37 125.011 302.354C124.913 302.452 124.913 302.551 125.11 302.649C125.897 302.649 126.586 302.944 127.177 303.535C127.767 304.125 128.062 304.814 128.062 305.7C128.062 306.488 127.866 307.176 127.275 307.767C126.685 308.358 126.094 308.653 125.307 308.751C124.421 308.751 123.633 308.554 123.043 307.964C122.354 307.373 122.059 306.684 122.059 305.799C122.059 304.224 123.043 302.944 124.913 301.862C126.783 300.779 128.948 300.287 131.409 300.287C137.609 300.287 140.759 303.24 140.759 309.046L140.66 322.53ZM128.062 321.743C128.85 323.219 129.932 324.105 131.409 324.302C132.787 324.499 133.968 324.105 134.854 323.121V309.145C131.31 311.409 129.145 313.279 128.259 314.755C126.98 316.92 126.881 319.282 128.062 321.743Z" fill="white"/>
<path id="Vector_6" d="M165.758 320.07C166.054 320.168 166.25 320.266 166.349 320.266C165.66 322.235 164.577 323.81 163.101 325.089C161.526 326.27 159.755 326.959 157.589 326.959C153.948 326.959 150.897 325.876 148.338 323.514C145.877 321.152 144.598 317.806 144.598 313.278C144.598 311.113 144.991 309.145 145.877 307.275C146.763 305.503 147.944 304.027 149.322 302.944C150.798 301.862 152.275 300.976 153.948 300.484C155.621 299.893 157.294 299.795 159.066 299.992C160.837 300.188 162.314 300.779 163.691 301.763C165.561 303.043 166.447 304.421 166.447 305.995C166.447 306.881 166.152 307.57 165.463 308.161C164.774 308.751 164.085 309.046 163.199 308.948C162.412 308.948 161.723 308.554 161.132 308.062C160.64 307.472 160.345 306.783 160.345 305.995C160.345 305.306 160.542 304.617 161.034 304.125C161.526 303.535 162.018 303.239 162.707 303.043C162.904 303.043 163.101 302.846 163.101 302.649C163.199 302.354 163.101 302.157 162.904 302.058C161.428 301.173 160.05 300.68 158.77 300.582C157.491 300.484 156.31 300.877 155.227 301.665C154.145 302.452 153.259 303.732 152.57 305.7C151.881 307.668 151.487 310.129 151.29 313.082C151.093 317.412 151.586 320.66 152.767 322.727C153.948 324.794 155.522 325.876 157.491 326.073C158.967 326.172 160.444 325.778 162.018 324.794C163.593 323.81 164.971 322.235 165.758 320.07Z" fill="white"/>
<path id="Vector_7" d="M190.167 303.043C192.332 305.306 193.415 308.653 193.415 313.18C193.415 317.707 192.332 321.054 190.167 323.317C188.002 325.581 185.246 326.664 181.801 326.664C178.356 326.664 175.601 325.581 173.435 323.317C171.27 321.054 170.187 317.707 170.187 313.18C170.187 308.653 171.27 305.306 173.435 303.043C175.601 300.779 178.356 299.696 181.801 299.696C185.246 299.696 188.002 300.779 190.167 303.043ZM178.061 303.239C177.372 305.208 176.979 308.554 176.979 313.18C176.979 317.806 177.372 321.152 178.061 323.121C178.75 325.187 180.03 326.172 181.801 326.172C183.573 326.172 184.852 325.187 185.541 323.121C186.23 321.054 186.624 317.806 186.624 313.082C186.624 308.456 186.23 305.208 185.541 303.141C184.852 301.173 183.573 300.09 181.801 300.09C180.03 300.287 178.75 301.271 178.061 303.239Z" fill="white"/>
<path id="Vector_8" d="M222.056 325.975V326.467H215.953C215.461 326.467 215.068 326.369 214.674 326.172C214.379 325.975 214.182 325.68 214.083 325.384C213.985 325.089 213.887 324.695 213.788 324.302C213.69 323.908 213.69 323.514 213.69 323.121C213.69 322.727 213.69 322.333 213.69 322.038C212.41 325.089 210.147 326.565 206.702 326.565C203.454 326.565 200.993 325.384 199.222 323.121C197.45 320.857 196.564 317.511 196.564 313.082C196.564 308.751 197.647 305.405 199.812 303.043C201.978 300.681 204.635 299.5 207.785 299.5C210.54 299.5 212.607 300.484 213.788 302.452C213.788 297.433 213.887 293.988 213.887 292.216C213.887 291.724 213.69 291.527 213.198 291.527H212.902V291.035C216.249 290.74 218.414 289.461 219.3 287H219.694L219.694 308.653L219.694 324.4C219.792 324.991 219.989 325.384 220.284 325.68C220.481 325.876 221.071 325.975 222.056 325.975ZM213.788 320.07L213.788 303.928C212.902 301.468 211.032 300.287 208.277 300.287C206.407 300.287 205.127 301.074 204.635 302.747C204.044 304.421 203.749 307.373 203.848 311.802C203.848 312.786 203.848 313.771 203.848 314.656C203.848 315.542 203.848 316.428 203.946 317.215C203.946 318.003 204.044 318.79 204.143 319.578C204.241 320.266 204.34 320.955 204.438 321.546C204.537 322.136 204.733 322.727 204.93 323.121C205.127 323.613 205.422 324.006 205.718 324.302C206.013 324.597 206.407 324.892 206.8 324.991C207.194 325.188 207.686 325.286 208.277 325.286C209.655 325.286 210.836 324.892 211.82 324.006C212.706 323.219 213.395 321.841 213.788 320.07Z" fill="white"/>
<path id="Vector_9" d="M246.759 311.901L231.307 311.901C230.618 320.759 232.783 325.483 237.606 325.877C239.082 325.975 240.559 325.582 242.133 324.597C243.708 323.613 244.889 322.038 245.578 319.873C245.676 319.873 245.775 319.873 245.873 319.972C245.972 320.07 246.07 320.07 246.169 320.07C245.48 322.038 244.397 323.613 242.822 324.893C241.247 326.074 239.476 326.763 237.409 326.763C233.275 326.763 230.027 325.582 227.665 323.219C225.402 320.759 224.221 317.609 224.221 313.574C224.122 309.933 225.303 306.685 227.567 303.929C229.831 301.173 233.078 299.894 237.114 299.894C238.393 299.894 239.574 300.09 240.657 300.583C241.74 300.976 242.822 301.665 243.806 302.551C244.791 303.437 245.48 304.716 246.07 306.291C246.661 307.866 246.857 309.736 246.759 311.901ZM241.936 311.409C242.527 308.456 242.33 305.897 241.247 303.83C240.263 301.764 238.885 300.681 237.212 300.583C236.523 300.484 235.834 300.681 235.244 301.173C234.653 301.665 233.964 302.453 233.275 303.732C232.291 305.405 231.701 307.964 231.307 311.409L241.936 311.409Z" fill="white"/>
<path id="Vector_10" d="M262.8 301.566C263.194 301.862 263.588 302.058 263.883 302.255C264.178 302.452 264.375 302.452 264.572 302.354C264.769 302.255 264.867 302.157 265.064 302.157C265.162 302.058 265.261 301.862 265.359 301.566C265.458 301.173 265.458 300.976 265.458 300.779C265.458 300.582 265.556 300.287 265.556 299.893H265.95C265.851 301.665 265.753 304.519 265.753 308.357H265.359C265.064 306.192 264.178 304.421 262.899 302.747C261.619 301.173 259.946 300.385 257.781 300.385C256.6 300.385 255.714 300.779 255.123 301.566C254.533 302.354 254.238 303.338 254.238 304.617C254.238 305.109 254.336 305.503 254.533 305.995C254.73 306.487 254.927 306.783 255.123 307.176C255.32 307.472 255.714 307.865 256.206 308.259C256.698 308.653 257.092 308.948 257.485 309.145C257.781 309.342 258.273 309.735 259.06 310.227C259.848 310.72 260.34 311.015 260.635 311.31C262.899 312.786 264.67 314.164 265.753 315.345C266.836 316.526 267.426 318.101 267.426 319.971C267.426 322.136 266.54 323.81 264.769 325.089C262.997 326.27 260.832 326.959 258.47 326.959C256.993 326.959 255.714 326.762 254.533 326.27C254.041 326.073 253.647 325.778 253.253 325.581C252.86 325.286 252.663 325.089 252.466 324.991C252.269 324.892 252.171 324.794 251.974 324.794C251.58 324.794 251.187 324.991 250.891 325.384C250.498 325.778 250.301 326.172 250.301 326.664H249.907C250.005 324.794 250.104 321.447 250.104 316.723H250.498C250.596 319.676 251.285 322.038 252.564 323.81C253.844 325.581 255.714 326.369 258.174 326.369C259.257 326.369 260.241 325.876 261.127 324.991C262.013 324.105 262.407 322.825 262.407 321.152C262.407 320.463 262.308 319.873 262.013 319.282C261.718 318.692 261.324 318.101 260.635 317.511C259.946 316.92 259.355 316.428 258.962 316.133C258.47 315.837 257.682 315.345 256.6 314.558C255.32 313.771 254.434 313.18 253.942 312.786C253.45 312.393 252.761 311.901 251.974 311.113C251.187 310.326 250.596 309.637 250.301 308.849C250.005 308.062 249.809 307.176 249.809 306.192C249.809 304.125 250.596 302.551 252.171 301.468C253.745 300.385 255.615 299.795 257.682 299.795C259.552 299.696 261.324 300.287 262.8 301.566Z" fill="white"/>
</g>
<g id="Group_2">
<path id="Vector_11" d="M36.1374 333.161L33.7753 340.149H33.2832L31.1179 333.85L28.9526 340.149H28.4605L26 333.161H26.4921L28.6574 339.46L30.8227 333.161H31.3148L33.48 339.46L35.6453 333.161H36.1374Z" fill="white"/>
<path id="Vector_12" d="M46.4711 339.657V340.149H41.6484L41.6484 333.161H46.3727V333.653H42.239L42.239 336.409H45.979V336.901H42.239L42.239 339.755H46.4711V339.657Z" fill="white"/>
<path id="Vector_13" d="M60.2504 333.555H57.6914V333.161H63.203V333.653H60.6441L60.6441 340.247H60.1519L60.1519 333.555H60.2504Z" fill="white"/>
<path id="Vector_14" d="M72.5546 338.181H68.5193L67.6335 340.149H67.043L70.2909 333.161H70.783L74.0309 340.149H73.4404L72.5546 338.181ZM72.3577 337.689L70.4877 333.653L68.6177 337.689H72.3577Z" fill="white"/>
<path id="Vector_15" d="M81.3129 336.704L79.7382 338.279V340.149H79.2461L79.2461 333.161H79.7382L79.7382 337.689L84.0687 333.161H84.6593L81.6082 336.311L84.8561 340.149H84.2656L81.3129 336.704Z" fill="white"/>
<path id="Vector_16" d="M95.1898 339.657V340.149H90.3672L90.3672 333.161H95.0914V333.653H90.9577V336.409H94.6977V336.901H90.9577L90.9577 339.755H95.1898V339.657Z" fill="white"/>
<path id="Vector_17" d="M109.757 337.688V340.149H109.265V337.688L106.41 333.062H107.001L109.56 337.196L112.119 333.062H112.611L109.757 337.688Z" fill="white"/>
<path id="Vector_18" d="M118.713 339.657C118.122 339.361 117.729 338.968 117.433 338.377C117.138 337.885 116.941 337.196 116.941 336.606C116.941 335.917 117.138 335.326 117.433 334.834C117.729 334.342 118.221 333.85 118.713 333.554C119.303 333.259 119.894 333.062 120.583 333.062C121.272 333.062 121.862 333.259 122.453 333.554C123.043 333.85 123.437 334.243 123.732 334.834C124.028 335.326 124.225 336.015 124.225 336.704C124.225 337.393 124.028 337.983 123.732 338.574C123.437 339.066 122.945 339.558 122.453 339.853C121.862 340.149 121.272 340.346 120.583 340.346C119.894 340.346 119.205 340.05 118.713 339.657ZM122.158 339.263C122.65 338.968 123.043 338.672 123.24 338.18C123.536 337.688 123.634 337.196 123.634 336.606C123.634 336.015 123.536 335.523 123.24 335.031C122.945 334.539 122.551 334.145 122.158 333.948C121.666 333.653 121.173 333.554 120.583 333.554C119.992 333.554 119.5 333.653 119.008 333.948C118.516 334.243 118.122 334.539 117.926 335.031C117.63 335.523 117.532 336.015 117.532 336.606C117.532 337.196 117.63 337.688 117.926 338.18C118.221 338.672 118.615 339.066 119.008 339.263C119.5 339.558 119.992 339.657 120.583 339.657C121.173 339.657 121.666 339.558 122.158 339.263Z" fill="white"/>
<path id="Vector_19" d="M130.623 339.362C130.13 338.87 129.934 338.082 129.934 337.098V333.161H130.426V337.098C130.426 337.984 130.623 338.574 131.016 339.066C131.41 339.46 132 339.755 132.689 339.755C133.477 339.755 133.969 339.559 134.363 339.066C134.756 338.673 134.953 337.984 134.953 337.098V333.161H135.445V337.098C135.445 338.082 135.15 338.87 134.658 339.362C134.166 339.854 133.477 340.149 132.591 340.149C131.804 340.149 131.115 339.952 130.623 339.362Z" fill="white"/>
<path id="Vector_20" d="M148.93 333.555V336.507H152.67V337H148.93V340.051H148.438V333.161H153.162V333.653H148.93V333.555Z" fill="white"/>
<path id="Vector_21" d="M159.458 339.362C158.966 338.87 158.77 338.082 158.77 337.098V333.161H159.262V337.098C159.262 337.984 159.458 338.574 159.852 339.066C160.246 339.46 160.836 339.755 161.525 339.755C162.313 339.755 162.805 339.559 163.198 339.066C163.592 338.673 163.789 337.984 163.789 337.098V333.161H164.281V337.098C164.281 338.082 163.986 338.87 163.494 339.362C163.002 339.854 162.313 340.149 161.427 340.149C160.64 340.149 159.951 339.952 159.458 339.362Z" fill="white"/>
<path id="Vector_22" d="M175.6 340.149L173.927 337.787C173.632 337.787 173.435 337.885 173.238 337.885H171.269V340.149H170.777V333.161H173.336C174.222 333.161 174.911 333.358 175.403 333.752C175.895 334.145 176.191 334.736 176.191 335.523C176.191 336.114 176.092 336.507 175.797 336.901C175.502 337.295 175.108 337.59 174.616 337.689L176.387 340.149H175.6ZM173.238 337.393C174.025 337.393 174.517 337.196 174.911 336.901C175.305 336.606 175.502 336.114 175.502 335.523C175.502 334.933 175.305 334.441 174.911 334.145C174.517 333.85 173.927 333.653 173.238 333.653H171.269V337.492H173.238V337.393Z" fill="white"/>
<path id="Vector_23" d="M183.18 333.555H180.621V333.161H186.133V333.653H183.574V340.247H183.082V333.555H183.18Z" fill="white"/>
<path id="Vector_24" d="M197.156 333.161V340.149H196.664V336.803H191.939V340.149H191.447V333.161H191.939V336.409H196.664V333.161H197.156Z" fill="white"/>
<path id="Vector_25" d="M208.473 339.657V340.149H203.65V333.161H208.375V333.653H204.241V336.409H207.981V336.901H204.241V339.755H208.473V339.657Z" fill="white"/>
<path id="Vector_26" d="M219.202 340.149L217.528 337.787C217.233 337.787 217.036 337.885 216.839 337.885H214.871V340.149H214.379V333.161H216.938C217.824 333.161 218.513 333.358 219.005 333.752C219.497 334.145 219.792 334.736 219.792 335.523C219.792 336.114 219.694 336.507 219.398 336.901C219.103 337.295 218.709 337.59 218.217 337.689L219.989 340.149H219.202ZM216.839 337.393C217.627 337.393 218.119 337.196 218.513 336.901C218.906 336.606 219.103 336.114 219.103 335.523C219.103 334.933 218.906 334.441 218.513 334.145C218.119 333.85 217.528 333.653 216.839 333.653H214.871V337.492H216.839V337.393Z" fill="white"/>
<path id="Vector_27" d="M232.193 340.149V334.145L229.24 339.165H228.945L225.992 334.145V340.149H225.5V333.161H225.894L229.043 338.574L232.193 333.161H232.586V340.149H232.193Z" fill="white"/>
<path id="Vector_28" d="M240.264 339.657C239.673 339.361 239.28 338.968 238.984 338.377C238.689 337.885 238.492 337.196 238.492 336.606C238.492 335.917 238.689 335.326 238.984 334.834C239.28 334.342 239.772 333.85 240.264 333.555C240.756 333.259 241.445 333.062 242.134 333.062C242.823 333.062 243.413 333.259 244.004 333.555C244.594 333.85 244.988 334.244 245.283 334.834C245.579 335.326 245.775 336.015 245.775 336.704C245.775 337.393 245.579 337.984 245.283 338.574C244.988 339.066 244.496 339.558 244.004 339.854C243.413 340.149 242.823 340.346 242.134 340.346C241.445 340.346 240.756 340.05 240.264 339.657ZM243.709 339.263C244.201 338.968 244.594 338.673 244.791 338.18C245.086 337.688 245.185 337.196 245.185 336.606C245.185 336.015 245.086 335.523 244.791 335.031C244.496 334.539 244.102 334.145 243.709 333.948C243.216 333.653 242.724 333.555 242.134 333.555C241.543 333.555 241.051 333.653 240.559 333.948C240.067 334.244 239.673 334.539 239.476 335.031C239.181 335.523 239.083 336.015 239.083 336.606C239.083 337.196 239.181 337.688 239.476 338.18C239.772 338.673 240.165 339.066 240.559 339.263C241.051 339.558 241.543 339.657 242.134 339.657C242.724 339.657 243.216 339.558 243.709 339.263Z" fill="white"/>
<path id="Vector_29" d="M256.405 340.149L254.731 337.787C254.436 337.787 254.239 337.885 254.043 337.885H252.074V340.149H251.582V333.161H254.141C255.027 333.161 255.716 333.358 256.208 333.752C256.7 334.145 256.995 334.736 256.995 335.523C256.995 336.114 256.897 336.507 256.602 336.901C256.306 337.295 255.913 337.59 255.42 337.689L257.192 340.149H256.405ZM254.043 337.393C254.83 337.393 255.322 337.196 255.716 336.901C256.109 336.606 256.306 336.114 256.306 335.523C256.306 334.933 256.109 334.441 255.716 334.145C255.322 333.85 254.732 333.653 254.043 333.653H252.074V337.492H254.043V337.393Z" fill="white"/>
<path id="Vector_30" d="M267.526 339.657V340.149H262.703V333.161H267.427V333.653H263.294V336.409H267.034V336.901H263.294V339.755H267.526V339.657Z" fill="white"/>
</g>
<g id="Group_3" style="mix-blend-mode:soft-light" opacity="0.5">
<path id="Vector_31" d="M216.174 0.555664H176.174L164.507 36.1112H209.507L256.174 180L152.285 256.111V300L282.841 205C292.285 198.333 296.174 186.111 292.841 175L241.73 18.889C238.396 7.77789 227.841 0.555664 216.174 0.555664Z" fill="white"/>
<path id="Vector_32" d="M110.62 164.444L163.953 0H77.2863C65.6196 0 55.0641 7.77778 51.7307 18.3333L1.17519 175C-2.15814 186.111 1.73075 198.333 11.1752 205L141.731 300V256.111L92.8419 220.556L110.62 164.444ZM36.7307 180L83.3974 36.1111H115.064L62.2863 198.889L36.7307 180Z" fill="white"/>
</g>
</g>
</g>
</g>
</svg>
