<svg preserveAspectRatio="none" width="100%" height="100%" overflow="visible" style="display: block;" viewBox="0 0 24.9762 25" fill="none" xmlns="http://www.w3.org/2000/svg">
<g id="Vector">
<path d="M0 11.7289C0.150501 9.29385 1.01029 6.95608 2.47337 5.00377C3.93644 3.05147 5.93885 1.56999 8.23373 0.741962C10.5286 -0.0860614 13.0156 -0.224427 15.3882 0.343923C17.7608 0.912274 19.9151 2.16249 21.5858 3.94045C23.2564 5.71842 24.3702 7.94639 24.7899 10.3497C25.2095 12.753 24.9168 15.2266 23.9476 17.4656C22.9784 19.7045 21.3753 21.6109 19.3358 22.9497C17.2962 24.2885 14.9095 25.0012 12.4698 25H5.20313C3.8236 24.9986 2.50096 24.45 1.52548 23.4745C0.550004 22.499 0.00137747 21.1764 0 19.7969V11.7289ZM2.08125 19.7969C2.08125 20.6248 2.41016 21.4189 2.99563 22.0044C3.58109 22.5898 4.37516 22.9187 5.20313 22.9187H12.4698C13.9382 22.9181 15.39 22.6079 16.7305 22.0085C18.0709 21.4091 19.27 20.5339 20.2495 19.4399C21.2338 18.3465 21.9729 17.0553 22.4173 15.6529C22.8617 14.2504 23.0011 12.7692 22.8261 11.3085C22.5499 9.00448 21.5147 6.85792 19.8838 5.20721C18.2529 3.55651 16.119 2.49554 13.8185 2.19156C13.3697 2.13531 12.9179 2.10682 12.4657 2.10623C10.0405 2.09961 7.69043 2.94695 5.82751 4.49967C4.7395 5.40391 3.84645 6.51968 3.2025 7.77933C2.55854 9.03899 2.17708 10.4163 2.08125 11.8278V19.7969Z" fill="var(--fill-0, #4AAD97)"/>
<path d="M16.6499 9.39058H12.4874C12.2114 9.39058 11.9467 9.28094 11.7516 9.08579C11.5564 8.89063 11.4468 8.62594 11.4468 8.34995C11.4468 8.07396 11.5564 7.80927 11.7516 7.61412C11.9467 7.41896 12.2114 7.30933 12.4874 7.30933H16.6499C16.9259 7.30933 17.1906 7.41896 17.3858 7.61412C17.5809 7.80927 17.6906 8.07396 17.6906 8.34995C17.6906 8.62594 17.5809 8.89063 17.3858 9.08579C17.1906 9.28094 16.9259 9.39058 16.6499 9.39058Z" fill="var(--fill-0, #4AAD97)"/>
<path d="M8.32492 11.4719H16.6499C16.9259 11.4719 17.1906 11.5815 17.3858 11.7767C17.5809 11.9718 17.6906 12.2365 17.6906 12.5125C17.6906 12.7885 17.5809 13.0532 17.3858 13.2483C17.1906 13.4435 16.9259 13.5531 16.6499 13.5531H8.32492C8.04893 13.5531 7.78424 13.4435 7.58909 13.2483C7.39393 13.0532 7.28429 12.7885 7.28429 12.5125C7.28429 12.2365 7.39393 11.9718 7.58909 11.7767C7.78424 11.5815 8.04893 11.4719 8.32492 11.4719Z" fill="var(--fill-0, #4AAD97)"/>
<path d="M8.32492 15.6343H16.6499C16.9259 15.6343 17.1906 15.744 17.3858 15.9391C17.5809 16.1343 17.6906 16.399 17.6906 16.675C17.6906 16.951 17.5809 17.2156 17.3858 17.4108C17.1906 17.606 16.9259 17.7156 16.6499 17.7156H8.32492C8.04893 17.7156 7.78424 17.606 7.58909 17.4108C7.39393 17.2156 7.28429 16.951 7.28429 16.675C7.28429 16.399 7.39393 16.1343 7.58909 15.9391C7.78424 15.744 8.04893 15.6343 8.32492 15.6343Z" fill="var(--fill-0, #4AAD97)"/>
</g>
</svg>
