<svg preserveAspectRatio="none" width="100%" height="100%" overflow="visible" style="display: block;" viewBox="0 0 520 530.587" fill="none" xmlns="http://www.w3.org/2000/svg">
<g id="Group">
<path id="Vector" d="M382.328 0.984514H311.583L290.949 63.8686H370.537L453.072 318.353L269.333 452.964V530.587L500.235 362.568C516.939 350.777 523.817 329.161 517.922 309.51L427.526 33.4091C421.63 13.7579 402.962 0.984514 382.328 0.984514Z" fill="var(--fill-0, #05735B)" fill-opacity="0.06"/>
<path id="Vector_2" d="M195.644 290.839L289.97 0H136.69C116.056 0 97.3872 13.7559 91.4918 32.4246L2.07847 309.508C-3.81692 329.159 3.06103 350.776 19.7646 362.566L250.667 530.585V452.962L164.202 390.078L195.644 290.839ZM64.9626 318.351L147.498 63.8667H203.504L110.161 351.758L64.9626 318.351Z" fill="var(--fill-0, #05735B)" fill-opacity="0.06"/>
</g>
</svg>
