<svg preserveAspectRatio="none" width="100%" height="100%" overflow="visible" style="display: block;" viewBox="0 0 25 25" fill="none" xmlns="http://www.w3.org/2000/svg">
<g id="Group">
<g id="Vector">
</g>
<path id="Vector_2" d="M13.2366 3.78749C13.0412 3.5922 12.7763 3.4825 12.5001 3.4825C12.2239 3.4825 11.959 3.5922 11.7636 3.78749L5.87094 9.68019C5.77145 9.77629 5.69209 9.89123 5.6375 10.0183C5.5829 10.1454 5.55417 10.2821 5.55297 10.4204C5.55176 10.5587 5.57812 10.6959 5.6305 10.8239C5.68287 10.9519 5.76022 11.0682 5.85802 11.166C5.95583 11.2638 6.07213 11.3412 6.20015 11.3936C6.32817 11.4459 6.46533 11.4723 6.60365 11.4711C6.74196 11.4699 6.87864 11.4411 7.00573 11.3866C7.13282 11.332 7.24776 11.2526 7.34385 11.1531L11.4584 7.03853V20.8333C11.4584 21.1096 11.5682 21.3745 11.7635 21.5699C11.9589 21.7652 12.2238 21.875 12.5001 21.875C12.7764 21.875 13.0413 21.7652 13.2367 21.5699C13.432 21.3745 13.5418 21.1096 13.5418 20.8333V7.03853L17.6564 11.1531C17.8528 11.3429 18.1159 11.4479 18.3891 11.4455C18.6622 11.4431 18.9234 11.3336 19.1166 11.1404C19.3097 10.9473 19.4193 10.686 19.4216 10.4129C19.424 10.1398 19.319 9.87666 19.1293 9.68019L13.2366 3.78749Z" fill="var(--fill-0, #4AAD97)"/>
</g>
</svg>
