<svg preserveAspectRatio="none" width="100%" height="100%" overflow="visible" style="display: block;" viewBox="0 0 80 80" fill="none" xmlns="http://www.w3.org/2000/svg">
<g id="Group 10778">
<rect id="Rectangle 964" width="80" height="80" rx="20" fill="var(--fill-0, #07725B)" fill-opacity="0.4"/>
<path id="Vector" d="M40 65C26.2146 65 15 53.7854 15 40C15 26.2146 26.2146 15 40 15C53.7854 15 65 26.2146 65 40C65 53.7854 53.7854 65 40 65ZM40 19.1667C28.5125 19.1667 19.1667 28.5125 19.1667 40C19.1667 51.4875 28.5125 60.8333 40 60.8333C51.4875 60.8333 60.8333 51.4875 60.8333 40C60.8333 28.5125 51.4875 19.1667 40 19.1667ZM47.0771 47.9229L42.0833 39.4312V25.4167H37.9167V40.5667L43.4854 50.0333L47.0792 47.9208L47.0771 47.9229Z" fill="var(--fill-0, white)"/>
</g>
</svg>
