<svg preserveAspectRatio="none" width="100%" height="100%" overflow="visible" style="display: block;" viewBox="0 0 41.8922 50" fill="none" xmlns="http://www.w3.org/2000/svg">
<g id="Group 10742">
<path id="Vector" d="M20.9459 12.5029C19.2979 12.5029 17.6868 12.9916 16.3165 13.9072C14.9463 14.8228 13.8782 16.1242 13.2476 17.6468C12.6169 19.1694 12.4519 20.8448 12.7734 22.4612C13.0949 24.0775 13.8885 25.5623 15.0539 26.7276C16.2192 27.8929 17.7039 28.6865 19.3203 29.0081C20.9367 29.3296 22.6121 29.1646 24.1347 28.5339C25.6572 27.9032 26.9586 26.8352 27.8742 25.4649C28.7898 24.0946 29.2785 22.4836 29.2785 20.8355C29.2785 18.6256 28.4006 16.5062 26.838 14.9435C25.2753 13.3808 23.1558 12.5029 20.9459 12.5029ZM20.9459 25.0019C20.1219 25.0019 19.3164 24.7575 18.6312 24.2997C17.9461 23.8419 17.4121 23.1912 17.0967 22.4299C16.7814 21.6686 16.6989 20.8309 16.8596 20.0227C17.0204 19.2146 17.4172 18.4722 17.9999 17.8895C18.5825 17.3069 19.3249 16.91 20.1331 16.7493C20.9413 16.5885 21.779 16.671 22.5403 16.9864C23.3016 17.3017 23.9523 17.8357 24.4101 18.5209C24.8679 19.206 25.1122 20.0115 25.1122 20.8355C25.1122 21.9405 24.6733 23.0002 23.8919 23.7816C23.1106 24.5629 22.0509 25.0019 20.9459 25.0019Z" fill="var(--fill-0, white)"/>
<path id="Vector_2" d="M20.9461 49.9999C19.192 50.0088 17.4612 49.5974 15.8988 48.8001C14.3363 48.0027 12.9876 46.8426 11.9656 45.4169C4.02674 34.4658 0 26.2332 0 20.9461C0 15.3909 2.20682 10.0631 6.13497 6.13497C10.0631 2.20682 15.3909 0 20.9461 0C26.5014 0 31.8291 2.20682 35.7572 6.13497C39.6854 10.0631 41.8922 15.3909 41.8922 20.9461C41.8922 26.2332 37.8655 34.4658 29.9266 45.4169C28.9046 46.8426 27.5559 48.0027 25.9935 48.8001C24.431 49.5974 22.7002 50.0088 20.9461 49.9999V49.9999ZM20.9461 4.54752C16.5974 4.55249 12.4281 6.28222 9.35309 9.35726C6.27806 12.4323 4.54832 16.6015 4.54336 20.9503C4.54336 25.1374 8.48677 32.8805 15.6445 42.7526C16.2521 43.5895 17.0493 44.2707 17.9708 44.7404C18.8922 45.2102 19.9118 45.455 20.9461 45.455C21.9804 45.455 23 45.2102 23.9214 44.7404C24.8429 44.2707 25.6401 43.5895 26.2477 42.7526C33.4055 32.8805 37.3489 25.1374 37.3489 20.9503C37.3439 16.6015 35.6142 12.4323 32.5391 9.35726C29.4641 6.28222 25.2949 4.55249 20.9461 4.54752V4.54752Z" fill="var(--fill-0, white)"/>
</g>
</svg>
