<svg preserveAspectRatio="none" width="100%" height="100%" overflow="visible" style="display: block;" viewBox="0 0 80 80" fill="none" xmlns="http://www.w3.org/2000/svg">
<g id="Group 1843">
<rect id="Rectangle 964" width="80" height="80" rx="20" fill="var(--fill-0, #07725B)" fill-opacity="0.4"/>
<path id="Vector" d="M65.7539 45.9489H64.1661C63.5709 45.9489 62.9806 45.9941 62.3926 46.0846L45.6196 33.506L49.6379 29.6591C50.5877 28.7498 50.621 27.2405 49.7117 26.2931C48.7999 25.3433 47.2907 25.3123 46.3457 26.2193L36.4118 35.7294C35.9167 36.2245 35.243 36.4792 34.536 36.4197C33.8266 36.3626 33.2029 36.0031 32.7768 35.408C32.1246 34.5034 32.3245 33.087 33.1767 32.2324L44.3722 21.6892C46.4932 19.6967 49.8093 19.2087 52.404 20.5109L57.9173 23.2675C59.5598 24.0887 61.4023 24.522 63.2377 24.522H65.7515C67.0679 24.522 68.132 23.4579 68.132 22.1415C68.132 20.8251 67.0679 19.761 65.7515 19.761H63.2377C62.1355 19.761 61.0286 19.5015 60.043 19.0088L54.5346 16.2521C50.1925 14.0787 44.6484 14.8857 41.1062 18.2232L39.635 19.6086L37.9687 18.0899C35.781 16.0974 32.9482 15 29.8988 15C28.0634 15 26.2328 15.4333 24.5974 16.2498L19.0889 19.0064C18.101 19.4991 16.9941 19.7586 15.8919 19.7586H13.3829C12.0665 19.7586 11.0024 20.8227 11.0024 22.1391C11.0024 23.4555 12.0665 24.5196 13.3829 24.5196H15.8967C17.7321 24.5196 19.5746 24.084 21.2195 23.2651L26.7327 20.5085C29.1656 19.2849 32.584 19.6158 34.7645 21.6083L36.1619 22.8818L29.8631 28.814C27.3088 31.3659 26.9017 35.4009 28.9156 38.1884C30.1535 39.9095 32.6126 41.1855 34.7336 41.1855C36.6213 41.1855 38.4329 40.4428 39.7421 39.1311L42.1369 36.8387L57.2436 48.1675C57.1698 48.2199 42.4892 59.2273 42.4892 59.2273C40.7681 60.5651 38.3662 60.5651 36.6094 59.2011L22.1098 48.327C20.0649 46.7916 17.5273 45.9465 14.9683 45.9465H13.3805C12.0641 45.9465 11 47.0106 11 48.327C11 49.6434 12.0641 50.7075 13.3805 50.7075H14.9683C16.5037 50.7075 18.0249 51.2145 19.2532 52.1358L33.7195 62.9861C35.4453 64.3287 37.514 65 39.5779 65C41.6299 65 43.6795 64.3358 45.3792 63.0123L59.8836 52.1382C61.1095 51.2169 62.6306 50.7099 64.1661 50.7099H65.7539C67.0703 50.7099 68.1344 49.6458 68.1344 48.3294C68.1344 47.013 67.0703 45.9489 65.7539 45.9489Z" fill="var(--fill-0, white)"/>
</g>
</svg>
