<svg preserveAspectRatio="none" width="100%" height="100%" overflow="visible" style="display: block;" viewBox="0 0 24 24" fill="none" xmlns="http://www.w3.org/2000/svg">
<g id="icon-phone" clip-path="url(#clip0_0_6)">
<g id="edit 1">
<path id="Vector" d="M18.656 4.93L6.46399 17.122C5.99833 17.5851 5.62917 18.1361 5.37787 18.7428C5.12657 19.3496 4.99813 20.0002 4.99999 20.657V22C4.99999 22.2652 5.10535 22.5196 5.29288 22.7071C5.48042 22.8946 5.73477 23 5.99999 23H7.34299C7.99975 23.0019 8.65036 22.8734 9.25715 22.6221C9.86393 22.3708 10.4148 22.0017 10.878 21.536L23.07 9.344C23.6544 8.75817 23.9826 7.96447 23.9826 7.137C23.9826 6.30952 23.6544 5.51583 23.07 4.93C22.4757 4.36189 21.6852 4.04485 20.863 4.04485C20.0408 4.04485 19.2503 4.36189 18.656 4.93V4.93ZM21.656 7.93L9.46399 20.122C8.90011 20.6824 8.138 20.9979 7.34299 21H6.99999V20.657C7.00207 19.862 7.31756 19.0999 7.87799 18.536L20.07 6.344C20.2836 6.13995 20.5676 6.02609 20.863 6.02609C21.1584 6.02609 21.4424 6.13995 21.656 6.344C21.8659 6.55451 21.9838 6.83969 21.9838 7.137C21.9838 7.43431 21.8659 7.71948 21.656 7.93V7.93Z" fill="var(--fill-0, #07725B)"/>
</g>
</g>
<defs>
<clipPath id="clip0_0_6">
<rect width="24" height="24" fill="white"/>
</clipPath>
</defs>
</svg>
