<svg preserveAspectRatio="none" width="100%" height="100%" overflow="visible" style="display: block;" viewBox="0 0 20 20" fill="none" xmlns="http://www.w3.org/2000/svg">
<g id="ant-design:user-outlined">
<path id="Vector" d="M16.7676 14.9141C16.3991 14.0414 15.8645 13.2486 15.1934 12.5801C14.5243 11.9096 13.7317 11.375 12.8594 11.0059C12.8516 11.002 12.8438 11 12.8359 10.9961C14.0527 10.1172 14.8438 8.68555 14.8438 7.07031C14.8438 4.39453 12.6758 2.22656 10 2.22656C7.32422 2.22656 5.15625 4.39453 5.15625 7.07031C5.15625 8.68555 5.94727 10.1172 7.16406 10.998C7.15625 11.002 7.14844 11.0039 7.14063 11.0078C6.26563 11.377 5.48047 11.9063 4.80664 12.582C4.13615 13.2511 3.60157 14.0437 3.23242 14.916C2.86977 15.77 2.67418 16.6856 2.65625 17.6133C2.65573 17.6341 2.65938 17.6549 2.667 17.6743C2.67462 17.6937 2.68605 17.7114 2.70061 17.7263C2.71517 17.7412 2.73257 17.7531 2.75179 17.7612C2.77101 17.7693 2.79165 17.7734 2.8125 17.7734H3.98438C4.07031 17.7734 4.13867 17.7051 4.14062 17.6211C4.17969 16.1133 4.78516 14.7012 5.85547 13.6309C6.96289 12.5234 8.43359 11.9141 10 11.9141C11.5664 11.9141 13.0371 12.5234 14.1445 13.6309C15.2148 14.7012 15.8203 16.1133 15.8594 17.6211C15.8613 17.707 15.9297 17.7734 16.0156 17.7734H17.1875C17.2084 17.7734 17.229 17.7693 17.2482 17.7612C17.2674 17.7531 17.2848 17.7412 17.2994 17.7263C17.314 17.7114 17.3254 17.6937 17.333 17.6743C17.3406 17.6549 17.3443 17.6341 17.3438 17.6133C17.3242 16.6797 17.1309 15.7715 16.7676 14.9141V14.9141ZM10 10.4297C9.10352 10.4297 8.25977 10.0801 7.625 9.44531C6.99023 8.81055 6.64062 7.9668 6.64062 7.07031C6.64062 6.17383 6.99023 5.33008 7.625 4.69531C8.25977 4.06055 9.10352 3.71094 10 3.71094C10.8965 3.71094 11.7402 4.06055 12.375 4.69531C13.0098 5.33008 13.3594 6.17383 13.3594 7.07031C13.3594 7.9668 13.0098 8.81055 12.375 9.44531C11.7402 10.0801 10.8965 10.4297 10 10.4297Z" fill="var(--fill-0, #07725B)"/>
</g>
</svg>
