<svg preserveAspectRatio="none" width="100%" height="100%" overflow="visible" style="display: block;" viewBox="0 0 25 25" fill="none" xmlns="http://www.w3.org/2000/svg">
<g id="search 1" clip-path="url(#clip0_28_127)">
<path id="Vector" d="M5.54053 15.1064L4.67031 18.3551L1.4897 18.4224C0.53916 16.6593 0 14.6422 0 12.4986C0 10.4258 0.504102 8.47114 1.39766 6.75H1.39834L4.22998 7.26914L5.47041 10.0838C5.21079 10.8407 5.06929 11.6532 5.06929 12.4986C5.06938 13.4162 5.2356 14.2954 5.54053 15.1064Z" fill="var(--fill-0, #FBBB00)"/>
<path id="Vector_2" d="M24.7822 10.1641C24.9257 10.9202 25.0006 11.7011 25.0006 12.4992C25.0006 13.3941 24.9065 14.2671 24.7272 15.1091C24.1188 17.9745 22.5288 20.4766 20.3262 22.2472L20.3255 22.2465L16.7589 22.0645L16.2541 18.9134C17.7156 18.0563 18.8578 16.7149 19.4595 15.1091H12.7754V10.1641H19.557H24.7822Z" fill="var(--fill-0, #518EF8)"/>
<path id="Vector_3" d="M20.3234 22.2468L20.3241 22.2475C18.182 23.9693 15.4608 24.9996 12.4986 24.9996C7.73828 24.9996 3.59956 22.3389 1.48828 18.4233L5.53911 15.1074C6.59473 17.9247 9.31245 19.9302 12.4986 19.9302C13.8681 19.9302 15.1511 19.56 16.252 18.9137L20.3234 22.2468Z" fill="var(--fill-0, #28B446)"/>
<path id="Vector_4" d="M20.4775 2.87773L16.4281 6.19297C15.2887 5.48076 13.9418 5.06934 12.4988 5.06934C9.24058 5.06934 6.47202 7.16685 5.46929 10.0852L1.39717 6.75137H1.39648C3.47686 2.74038 7.66777 0 12.4988 0C15.5318 0 18.3127 1.08037 20.4775 2.87773Z" fill="var(--fill-0, #F14336)"/>
</g>
<defs>
<clipPath id="clip0_28_127">
<rect width="25" height="25" fill="white"/>
</clipPath>
</defs>
</svg>
