<svg width="27" height="27" viewBox="0 0 27 27" fill="none" xmlns="http://www.w3.org/2000/svg">
<g id="HOMEAPPROVED-NEWCLIENTblack">
<g id="FOOTER">
<g id="Group 10469">
<g id="Group 10456">
<g id="Group 10458">
<g id="Group 10455">
<g id="Group 10452">
<g id="Group 10451">
<g id="Group 10450">
<path id="Vector" d="M9.24549 22.9987C4.72251 18.2485 4.869 6.3366 10.7279 2.85149C12.334 1.71532 17.0797 1.78173 16.982 5.09154C16.9451 6.40555 17.2328 7.75367 16.1936 8.77781C15.5554 9.44185 14.7517 9.63673 13.8707 9.58684C12.8181 9.58686 11.9322 10.3959 11.8101 11.4688C11.6592 12.7904 11.6593 14.186 11.8101 15.508C11.9322 16.5808 12.818 17.3898 13.8707 17.3898L14.2967 17.3899C15.0114 17.3899 15.6851 17.6772 16.1936 18.1989C17.2323 19.2211 16.9454 20.5747 16.9821 21.8853C17.0632 25.2069 12.349 25.2581 10.7279 24.1253C10.2021 23.8492 9.70558 23.4708 9.24549 22.9987ZM15.6938 3.75223C14.7825 2.74072 12.1409 2.85524 11.1738 3.5336C6.38339 6.40375 5.98568 14.9542 8.10731 19.7819C9.17478 22.0968 10.6145 23.7469 12.9245 23.9516C14.4769 24.0751 16.1841 23.6482 16.1821 21.8853C16.182 21.8853 16.182 20.1454 16.182 20.1454C16.2034 19.1111 15.3044 18.189 14.2966 18.2109C14.2967 18.2108 13.8706 18.2108 13.8706 18.2108C12.4121 18.2108 11.1846 17.0898 11.0154 15.6032C10.9367 14.9107 10.8967 14.1992 10.8968 13.4884C10.8968 12.7773 10.9367 12.0657 11.0155 11.3735C11.1846 9.88702 12.412 8.76602 13.8706 8.76594H14.2967C15.3043 8.78831 16.2036 7.86518 16.182 6.83135C16.182 6.83138 16.182 5.09146 16.182 5.09146C16.182 4.53122 16.0214 4.08837 15.6938 3.75223Z" fill="white" stroke="white"/>
<g id="Group 10449">
<g id="Group">
<path id="Vector_2" d="M20.3713 9.47367C20.2408 9.33977 20.2143 9.1262 20.3186 8.96074C20.74 8.29219 20.9627 7.518 20.9627 6.72188C20.9627 5.91373 20.7338 5.12975 20.3007 4.45473C20.1792 4.26539 20.2303 4.01086 20.4148 3.88619C20.5993 3.76157 20.8474 3.814 20.9689 4.00331C21.4882 4.81273 21.7627 5.7528 21.7627 6.72185C21.7627 7.67652 21.4957 8.60488 20.9903 9.4066C20.8704 9.59691 20.6227 9.65145 20.4372 9.52834C20.413 9.51222 20.3909 9.49383 20.3713 9.47367Z" fill="white"/>
</g>
<g id="Group_2">
<path id="Vector_3" d="M20.379 12.7432C20.3605 12.7243 20.3436 12.7032 20.3286 12.68C20.2062 12.4913 20.256 12.2365 20.4399 12.1109C22.2018 10.9077 23.2536 8.89276 23.2537 6.72105C23.2537 4.54538 22.1988 2.52839 20.432 1.32573C20.2477 1.20053 20.1976 0.945701 20.3198 0.756783C20.4419 0.567892 20.6901 0.516335 20.8742 0.641638C22.8652 1.99686 24.0537 4.2695 24.0537 6.72105C24.0537 9.16812 22.8684 11.4385 20.8832 12.7943C20.7218 12.9045 20.5109 12.8786 20.379 12.7432Z" fill="white"/>
</g>
</g>
</g>
</g>
</g>
</g>
</g>
</g>
</g>
</g>
</g>
</svg>
