<svg preserveAspectRatio="none" width="100%" height="100%" overflow="visible" style="display: block;" viewBox="0 0 20.0012 20.0012" fill="none" xmlns="http://www.w3.org/2000/svg">
<path id="Vector" d="M5.82966 14.1715C3.67907 12.0167 2.02518 9.41816 0.983663 6.55751C0.410663 4.99351 0.935663 3.27551 2.11366 2.09751L2.84266 1.36951C3.03865 1.17313 3.27144 1.01733 3.52772 0.911022C3.78399 0.804718 4.05872 0.75 4.33616 0.75C4.61361 0.75 4.88833 0.804718 5.14461 0.911022C5.40088 1.01733 5.63368 1.17313 5.82966 1.36951L7.53666 3.07651C7.73305 3.2725 7.88885 3.50529 7.99515 3.76157C8.10146 4.01784 8.15617 4.29256 8.15617 4.57001C8.15617 4.84746 8.10146 5.12218 7.99515 5.37846C7.88885 5.63473 7.73305 5.86752 7.53666 6.06351L7.11666 6.48351C6.94855 6.65159 6.81519 6.85114 6.7242 7.07076C6.63322 7.29039 6.58639 7.52579 6.58639 7.76351C6.58639 8.00124 6.63322 8.23663 6.7242 8.45626C6.81519 8.67588 6.94855 8.87543 7.11666 9.04351L10.9567 12.8845C11.1247 13.0526 11.3243 13.186 11.5439 13.277C11.7635 13.368 11.9989 13.4148 12.2367 13.4148C12.4744 13.4148 12.7098 13.368 12.9294 13.277C13.149 13.186 13.3486 13.0526 13.5167 12.8845L13.9377 12.4645C14.1337 12.2681 14.3664 12.1123 14.6227 12.006C14.879 11.8997 15.1537 11.845 15.4312 11.845C15.7086 11.845 15.9833 11.8997 16.2396 12.006C16.4959 12.1123 16.7287 12.2681 16.9247 12.4645L18.6317 14.1715C18.828 14.3675 18.9838 14.6003 19.0902 14.8566C19.1965 15.1128 19.2512 15.3876 19.2512 15.665C19.2512 15.9425 19.1965 16.2172 19.0902 16.4735C18.9838 16.7297 18.828 16.9625 18.6317 17.1585L17.9037 17.8865C16.7257 19.0655 15.0077 19.5905 13.4437 19.0175C10.583 17.976 7.98443 16.3221 5.82966 14.1715Z" stroke="var(--stroke-0, white)" stroke-width="1.5" stroke-linejoin="round"/>
</svg>
