<svg preserveAspectRatio="none" width="20.6" height="15.462" overflow="visible" style="display: block;" viewBox="0 0 20.6 15.462" fill="none" xmlns="http://www.w3.org/2000/svg">
<g id="Group">
<path id="Vector" d="M0.75 7.15C0.75 4.133 1.05 2.624 1.987 1.687C2.924 0.750001 4.433 0.750001 7.45 0.750001H13.15C16.167 0.750001 17.675 0.750001 18.613 1.687C19.551 2.624 19.85 4.133 19.85 7.15V8.312C19.85 11.329 19.55 12.838 18.613 13.775C17.676 14.712 16.167 14.712 13.15 14.712H7.45C4.433 14.712 2.924 14.712 1.987 13.775C1.05 12.838 0.75 11.329 0.75 8.312V7.15Z" stroke="var(--stroke-0, white)" stroke-width="1.5" stroke-linecap="round" stroke-linejoin="round"/>
<path id="Vector_2" d="M12.986 7.22197L8.71799 4.55497C8.62716 4.4982 8.52278 4.46678 8.41569 4.46398C8.30861 4.46117 8.20273 4.48709 8.10905 4.53903C8.01536 4.59098 7.93729 4.66706 7.88295 4.75937C7.8286 4.85168 7.79996 4.95685 7.79999 5.06397V10.399C7.80014 10.506 7.82891 10.6111 7.88333 10.7032C7.93775 10.7954 8.01583 10.8713 8.10948 10.9232C8.20313 10.975 8.30895 11.0008 8.41594 10.998C8.52294 10.9951 8.62723 10.9637 8.71799 10.907L12.986 8.23997C13.0724 8.18606 13.1436 8.11105 13.193 8.022C13.2424 7.93295 13.2683 7.8328 13.2683 7.73097C13.2683 7.62914 13.2424 7.52899 13.193 7.43995C13.1436 7.3509 13.0724 7.27589 12.986 7.22197Z" stroke="var(--stroke-0, white)" stroke-width="1.5" stroke-linejoin="round"/>
</g>
</svg>
