<svg preserveAspectRatio="none" width="100%" height="100%" overflow="visible" style="display: block;" viewBox="0 0 241.526 7.28328" fill="none" xmlns="http://www.w3.org/2000/svg">
<g id="Group">
<path id="Vector" d="M10.1374 0.0987305L7.7753 7.08665H7.28319L5.11791 0.787681L2.95264 7.08665H2.46054L0 0.0987305H0.492107L2.65738 6.39771L4.82265 0.0987305H5.31476L7.48003 6.39771L9.6453 0.0987305H10.1374Z" fill="var(--fill-0, #0A1821)"/>
<path id="Vector_2" d="M20.4711 6.59455V7.08665H15.6484V0.0987305H20.3727V0.590838H16.239V3.34664H19.979V3.83875H16.239V6.69297H20.4711V6.59455Z" fill="var(--fill-0, #0A1821)"/>
<path id="Vector_3" d="M34.2504 0.492418H31.6914V0.0987305H37.203V0.590838H34.6441V7.18508H34.1519V0.492418H34.2504Z" fill="var(--fill-0, #0A1821)"/>
<path id="Vector_4" d="M46.5546 5.11822H42.5193L41.6335 7.08665H41.043L44.2909 0.0987305H44.783L48.0309 7.08665H47.4404L46.5546 5.11822ZM46.3577 4.62612L44.4877 0.590838L42.6177 4.62612H46.3577Z" fill="var(--fill-0, #0A1821)"/>
<path id="Vector_5" d="M55.3129 3.6419L53.7382 5.21665V7.08665H53.2461V0.0987305H53.7382V4.62612L58.0687 0.0987305H58.6593L55.6082 3.24822L58.8561 7.08665H58.2656L55.3129 3.6419Z" fill="var(--fill-0, #0A1821)"/>
<path id="Vector_6" d="M69.1898 6.59455V7.08665H64.3672V0.0987305H69.0914V0.590838H64.9577V3.34664H68.6977V3.83875H64.9577V6.69297H69.1898V6.59455Z" fill="var(--fill-0, #0A1821)"/>
<path id="Vector_7" d="M83.7566 4.62581V7.08634H83.2645V4.62581L80.4103 0H81.0008L83.5598 4.1337L86.1187 0H86.6108L83.7566 4.62581Z" fill="var(--fill-0, #0A1821)"/>
<path id="Vector_8" d="M92.7129 6.59423C92.1224 6.29897 91.7287 5.90529 91.4335 5.31476C91.1382 4.82265 90.9414 4.1337 90.9414 3.54317C90.9414 2.85422 91.1382 2.26369 91.4335 1.77159C91.7287 1.27948 92.2208 0.787372 92.7129 0.492107C93.3035 0.196843 93.894 0 94.583 0C95.2719 0 95.8624 0.196843 96.453 0.492107C97.0435 0.787372 97.4372 1.18106 97.7324 1.77159C98.0277 2.26369 98.2245 2.95264 98.2245 3.64159C98.2245 4.33054 98.0277 4.92107 97.7324 5.5116C97.4372 6.00371 96.9451 6.49581 96.453 6.79108C95.8624 7.08634 95.2719 7.28319 94.583 7.28319C93.894 7.28319 93.2051 6.98792 92.7129 6.59423ZM96.1577 6.20055C96.6498 5.90529 97.0435 5.61002 97.2403 5.11791C97.5356 4.62581 97.634 4.1337 97.634 3.54317C97.634 2.95264 97.5356 2.46054 97.2403 1.96843C96.9451 1.47632 96.5514 1.08263 96.1577 0.885791C95.6656 0.590526 95.1735 0.492107 94.583 0.492107C93.9924 0.492107 93.5003 0.590526 93.0082 0.885791C92.5161 1.18106 92.1224 1.47632 91.9256 1.96843C91.6303 2.46054 91.5319 2.95264 91.5319 3.54317C91.5319 4.1337 91.6303 4.62581 91.9256 5.11791C92.2208 5.61002 92.6145 6.00371 93.0082 6.20055C93.5003 6.49582 93.9924 6.59423 94.583 6.59423C95.1735 6.59423 95.6656 6.49582 96.1577 6.20055Z" fill="var(--fill-0, #0A1821)"/>
<path id="Vector_9" d="M104.623 6.29928C104.13 5.80717 103.934 5.0198 103.934 4.03559V0.0987305H104.426V4.03559C104.426 4.92138 104.623 5.51191 105.016 6.00402C105.41 6.3977 106 6.69297 106.689 6.69297C107.477 6.69297 107.969 6.49613 108.363 6.00402C108.756 5.61033 108.953 4.92138 108.953 4.03559V0.0987305H109.445V4.03559C109.445 5.0198 109.15 5.80717 108.658 6.29928C108.166 6.79139 107.477 7.08665 106.591 7.08665C105.804 7.08665 105.115 6.88981 104.623 6.29928Z" fill="var(--fill-0, #0A1821)"/>
<path id="Vector_10" d="M122.93 0.492418V3.44506H126.67V3.93717H122.93V6.98823H122.438V0.0987305H127.162V0.590838H122.93V0.492418Z" fill="var(--fill-0, #0A1821)"/>
<path id="Vector_11" d="M133.458 6.29928C132.966 5.80717 132.77 5.0198 132.77 4.03559V0.0987305H133.262V4.03559C133.262 4.92138 133.458 5.51191 133.852 6.00402C134.246 6.3977 134.836 6.69297 135.525 6.69297C136.313 6.69297 136.805 6.49613 137.198 6.00402C137.592 5.61033 137.789 4.92138 137.789 4.03559V0.0987305H138.281V4.03559C138.281 5.0198 137.986 5.80717 137.494 6.29928C137.002 6.79139 136.313 7.08665 135.427 7.08665C134.64 7.08665 133.951 6.88981 133.458 6.29928Z" fill="var(--fill-0, #0A1821)"/>
<path id="Vector_12" d="M149.6 7.08665L147.927 4.72454C147.632 4.72454 147.435 4.82296 147.238 4.82296H145.269V7.08665H144.777V0.0987305H147.336C148.222 0.0987305 148.911 0.295572 149.403 0.689258C149.895 1.08294 150.191 1.67348 150.191 2.46085C150.191 3.05138 150.092 3.44506 149.797 3.83875C149.502 4.23243 149.108 4.52769 148.616 4.62612L150.387 7.08665H149.6V7.08665ZM147.238 4.33085C148.025 4.33085 148.517 4.13401 148.911 3.83875C149.305 3.54348 149.502 3.05138 149.502 2.46085C149.502 1.87032 149.305 1.37821 148.911 1.08295C148.517 0.787681 147.927 0.590838 147.238 0.590838H145.269V4.42928H147.238V4.33085Z" fill="var(--fill-0, #0A1821)"/>
<path id="Vector_13" d="M157.18 0.492418H154.621V0.0987305H160.133V0.590838H157.574V7.18508H157.082V0.492418H157.18Z" fill="var(--fill-0, #0A1821)"/>
<path id="Vector_14" d="M171.156 0.0987305V7.08665H170.664V3.74033H165.939V7.08665H165.447V0.0987305H165.939V3.34664H170.664V0.0987305H171.156Z" fill="var(--fill-0, #0A1821)"/>
<path id="Vector_15" d="M182.473 6.59455V7.08665H177.65V0.0987305H182.375V0.590838H178.241V3.34664H181.981V3.83875H178.241V6.69297H182.473V6.59455Z" fill="var(--fill-0, #0A1821)"/>
<path id="Vector_16" d="M193.202 7.08665L191.528 4.72454C191.233 4.72454 191.036 4.82296 190.839 4.82296H188.871V7.08665H188.379V0.0987305H190.938C191.824 0.0987305 192.513 0.295572 193.005 0.689258C193.497 1.08294 193.792 1.67348 193.792 2.46085C193.792 3.05138 193.694 3.44506 193.398 3.83875C193.103 4.23243 192.709 4.52769 192.217 4.62612L193.989 7.08665H193.202V7.08665ZM190.839 4.33085C191.627 4.33085 192.119 4.13401 192.513 3.83875C192.906 3.54348 193.103 3.05138 193.103 2.46085C193.103 1.87032 192.906 1.37821 192.513 1.08295C192.119 0.787681 191.528 0.590838 190.839 0.590838H188.871V4.42928H190.839V4.33085Z" fill="var(--fill-0, #0A1821)"/>
<path id="Vector_17" d="M206.193 7.08665V1.08295L203.24 6.10244H202.945L199.992 1.08295V7.08665H199.5V0.0987305H199.894L203.043 5.51191L206.193 0.0987305H206.586V7.08665H206.193Z" fill="var(--fill-0, #0A1821)"/>
<path id="Vector_18" d="M214.264 6.59433C213.673 6.29907 213.28 5.90538 212.984 5.31485C212.689 4.82275 212.492 4.1338 212.492 3.54327C212.492 2.85432 212.689 2.26379 212.984 1.77168C213.28 1.27958 213.772 0.787469 214.264 0.492205C214.756 0.196941 215.445 9.76563e-05 216.134 9.76563e-05C216.823 9.76563e-05 217.413 0.196941 218.004 0.492205C218.594 0.787469 218.988 1.18115 219.283 1.77168C219.579 2.26379 219.775 2.95274 219.775 3.64169C219.775 4.33064 219.579 4.92117 219.283 5.5117C218.988 6.00381 218.496 6.49591 218.004 6.79118C217.413 7.08644 216.823 7.28328 216.134 7.28328C215.445 7.28328 214.756 6.98802 214.264 6.59433ZM217.709 6.20065C218.201 5.90538 218.594 5.61012 218.791 5.11801C219.086 4.6259 219.185 4.1338 219.185 3.54327C219.185 2.95274 219.086 2.46063 218.791 1.96853C218.496 1.47642 218.102 1.08273 217.709 0.885889C217.216 0.590624 216.724 0.492205 216.134 0.492205C215.543 0.492205 215.051 0.590624 214.559 0.885889C214.067 1.18115 213.673 1.47642 213.476 1.96853C213.181 2.46063 213.083 2.95274 213.083 3.54327C213.083 4.1338 213.181 4.6259 213.476 5.11801C213.772 5.61012 214.165 6.00381 214.559 6.20065C215.051 6.49591 215.543 6.59433 216.134 6.59433C216.724 6.59433 217.216 6.49591 217.709 6.20065Z" fill="var(--fill-0, #0A1821)"/>
<path id="Vector_19" d="M230.405 7.08665L228.731 4.72454C228.436 4.72454 228.239 4.82296 228.043 4.82296H226.074V7.08665H225.582V0.0987305H228.141C229.027 0.0987305 229.716 0.295572 230.208 0.689258C230.7 1.08294 230.995 1.67348 230.995 2.46085C230.995 3.05138 230.897 3.44506 230.602 3.83875C230.306 4.23243 229.913 4.52769 229.42 4.62612L231.192 7.08665H230.405V7.08665ZM228.043 4.33085C228.83 4.33085 229.322 4.13401 229.716 3.83875C230.109 3.54348 230.306 3.05138 230.306 2.46085C230.306 1.87032 230.109 1.37821 229.716 1.08295C229.322 0.787681 228.732 0.590838 228.043 0.590838H226.074V4.42928H228.043V4.33085Z" fill="var(--fill-0, #0A1821)"/>
<path id="Vector_20" d="M241.526 6.59455V7.08665H236.703V0.0987305H241.427V0.590838H237.294V3.34664H241.034V3.83875H237.294V6.69297H241.526V6.59455Z" fill="var(--fill-0, #0A1821)"/>
</g>
</svg>
