<svg preserveAspectRatio="none" width="100%" height="100%" overflow="visible" style="display: block;" viewBox="0 0 241.33 39.959" fill="none" xmlns="http://www.w3.org/2000/svg">
<g id="Group">
<path id="Vector" d="M9.74378 34.2507C9.74378 36.1208 10.039 37.4002 10.728 37.9908C11.4169 38.6797 12.6964 38.975 14.7633 39.0734V39.4671C5.80691 39.3687 0.885842 39.3687 4.88281e-05 39.4671V39.0734C1.67321 38.975 2.75585 38.6797 3.24796 37.9908C3.74006 37.3018 4.03533 36.1208 4.03533 34.2507V8.858C4.03533 7.08642 3.83849 6.00378 3.34638 5.51167C2.85427 5.01957 1.77163 4.7243 0.0984688 4.62588V4.03535C9.05482 4.03535 13.9759 4.13377 14.7633 4.13377C18.6017 4.13377 21.5544 5.01957 23.6212 6.79115C25.6881 8.56274 26.6723 10.9249 26.6723 13.8775C26.6723 15.157 26.4754 16.4365 26.0817 17.6175C25.6881 18.7986 24.9991 19.9796 24.0149 21.1607C23.1291 22.3417 21.7512 23.2275 19.8812 23.9165C18.1096 24.6054 15.9443 24.9991 13.5822 24.9991H9.74378V34.2507V34.2507ZM9.74378 8.858V24.6054H13.0901C14.3696 24.6054 15.5506 24.4086 16.4364 24.0149C17.3222 23.6212 18.0112 23.2275 18.5033 22.7354C18.9954 22.2433 19.2907 21.456 19.4875 20.4717C19.6843 19.4875 19.8812 18.6017 19.8812 18.0112C19.8812 17.4207 19.9796 16.4365 19.9796 15.157C19.9796 14.8617 19.9796 14.6649 19.9796 14.5664C19.9796 13.0901 19.9796 12.0075 19.8812 11.1217C19.7828 10.2359 19.6843 9.35011 19.4875 8.46432C19.2907 7.57852 18.897 6.79115 18.5033 6.39747C17.9128 5.80694 17.2238 5.41325 16.4364 5.11799C15.6491 4.82272 14.6648 4.62588 13.4838 4.62588C12.0075 4.62588 11.0233 4.92115 10.5311 5.41325C10.039 6.00378 9.74378 7.08642 9.74378 8.858Z" fill="var(--fill-0, #0A1821)"/>
<path id="Vector_2" d="M51.5735 24.901H36.1213C35.4324 33.7589 37.5977 38.4831 42.4203 38.8768C43.8966 38.9752 45.3729 38.5816 46.9477 37.5973C48.5224 36.6131 49.7035 35.0384 50.3924 32.8731C50.4909 32.8731 50.5893 32.8731 50.6877 32.9715C50.7861 33.07 50.8846 33.07 50.983 33.07C50.294 35.0384 49.2114 36.6131 47.6366 37.8926C46.0619 39.0737 44.2903 39.7626 42.2235 39.7626C38.0898 39.7626 34.8419 38.5816 32.4797 36.2194C30.216 33.7589 29.035 30.6094 29.035 26.5741C28.9366 22.9325 30.1176 19.6846 32.3813 16.9288C34.645 14.173 37.8929 12.8936 41.9282 12.8936C43.2077 12.8936 44.3887 13.0904 45.4714 13.5825C46.554 13.9762 47.6366 14.6651 48.6209 15.5509C49.6051 16.4367 50.294 17.7162 50.8845 19.291C51.4751 20.8657 51.6719 22.7357 51.5735 24.901ZM46.7509 24.4089C47.3414 21.4562 47.1445 18.8973 46.0619 16.8304C45.0777 14.7636 43.6998 13.6809 42.0266 13.5825C41.3377 13.4841 40.6487 13.6809 40.0582 14.173C39.4677 14.6651 38.7787 15.4525 38.0898 16.732C37.1055 18.4052 36.515 20.9641 36.1213 24.4089H46.7509Z" fill="var(--fill-0, #0A1821)"/>
<path id="Vector_3" d="M78.0484 35.5307C78.0484 36.9086 78.3437 37.7944 78.8358 38.2865C79.4263 38.7786 80.4105 39.0739 81.7884 39.0739V39.566H68.5015V39.0739C69.781 39.0739 70.6668 38.877 71.2573 38.4834C71.8478 38.0897 72.1431 37.4007 72.2415 36.3181V27.9523C72.2415 27.1649 72.2415 26.2791 72.2415 25.098C72.2415 23.917 72.2415 23.228 72.2415 22.6375C72.2415 22.1454 72.2415 21.5549 72.2415 20.7675C72.2415 20.0785 72.2415 19.488 72.1431 19.1927C72.0447 18.7991 72.0447 18.4054 71.9463 18.0117C71.8479 17.5196 71.7494 17.2243 71.651 16.8306C71.5526 16.5354 71.3557 16.2401 71.2573 15.9448C70.7652 14.9606 69.8794 14.4685 68.7968 14.2717C67.7141 14.0748 66.5331 14.3701 65.352 15.059C63.9741 15.8464 62.8915 17.1259 62.2025 18.7006C61.5136 20.3738 61.1199 22.047 61.1199 23.917V26.4759C61.1199 27.7554 61.1199 29.4286 61.1199 31.4954C61.1199 33.5623 61.1199 34.9402 61.1199 35.5307C61.1199 36.9086 61.4152 37.7944 61.9073 38.2865C62.4978 38.7786 63.3836 39.0739 64.8599 39.0739V39.566H51.4746V39.0739C52.8525 39.0739 53.8367 38.7786 54.4273 38.2865C55.0178 37.7944 55.2146 36.8102 55.2146 35.5307V26.4759L55.1162 18.6022C55.1162 18.1101 54.9194 17.9133 54.5257 17.9133H54.2304V17.4212C57.6752 17.1259 59.742 15.748 60.7262 13.2875H61.1199V19.3896C61.4152 18.3069 62.0057 17.2243 62.8915 16.2401C63.6789 15.2559 64.4662 14.5669 65.1552 14.1732C66.6315 13.3859 68.4031 12.9922 70.47 12.9922C72.4384 13.0906 74.0131 13.4843 74.9973 14.2717C75.4894 14.5669 75.8831 14.9606 76.2768 15.4527C76.6705 15.8464 76.8673 16.3385 77.1626 16.8306C77.3594 17.3227 77.5563 17.9133 77.6547 18.5038C77.7531 19.0943 77.8516 19.7833 77.95 20.3738C78.0484 21.0627 78.0484 21.7517 78.0484 22.5391C78.0484 23.3264 78.0484 24.1138 78.0484 24.9012C78.0484 25.6886 78.0484 26.5744 78.0484 27.3617V35.5307V35.5307Z" fill="var(--fill-0, #0A1821)"/>
<path id="Vector_4" d="M90.4486 13.3853V35.5301C90.4486 36.3175 90.4486 36.8096 90.547 37.2033C90.6455 37.597 90.6455 37.8922 90.8423 38.0891C90.9407 38.2859 91.236 38.3843 91.5313 38.2859C91.8265 38.1875 92.2202 37.9906 92.7123 37.5969L92.8107 37.6954L92.9091 37.7938L93.0076 37.8922C91.6297 38.8764 90.2518 39.3685 88.8739 39.3685C86.807 39.3685 85.5275 38.5812 84.937 37.1048C84.937 37.0064 84.8386 36.8096 84.8386 36.5143C84.7402 36.219 84.7402 35.8254 84.7402 35.3333C84.7402 34.8411 84.7402 34.349 84.6418 33.7585C84.6418 33.2664 84.6417 32.479 84.5433 31.5932C84.5433 30.7074 84.5433 29.8217 84.5433 29.0343C84.5433 28.2469 84.5433 27.1643 84.5433 25.8848C84.5433 24.5069 84.5433 23.3258 84.5433 22.2432C84.5433 21.1606 84.5433 19.7827 84.5433 18.0111C84.5433 16.2395 84.5433 14.6647 84.5433 13.2868H81.9844V12.7947H84.5433L84.6418 10.3342C84.6418 9.84209 84.4449 9.64525 83.9528 9.64525H83.6575V9.15314C87.0039 8.85788 89.1691 7.47998 90.1534 4.92102H90.547V12.7947H93.106V13.2868H90.4486V13.3853Z" fill="var(--fill-0, #0A1821)"/>
<path id="Vector_5" d="M114.563 35.5303C114.563 36.9082 114.858 37.794 115.35 38.2861C115.842 38.7782 116.826 39.0734 118.303 39.0734V39.5655H110.921C109.543 39.5655 108.756 38.6797 108.756 36.8097C107.378 38.4829 105.606 39.3687 103.54 39.664C102.063 39.8608 100.587 39.664 99.3074 39.0734C98.0279 38.4829 97.0437 37.6955 96.4532 36.6129C95.8627 35.5303 95.8627 34.1524 96.5516 32.4792C97.1421 30.806 98.52 29.0344 100.685 27.2629C102.752 25.4913 105.508 23.6213 108.854 21.8497C108.854 20.8655 108.756 19.9797 108.756 19.1923C108.756 15.6491 107.181 13.8775 104.13 13.8775C102.26 13.8775 100.488 14.3696 98.9137 15.3539C98.8153 15.4523 98.8153 15.5507 99.0122 15.6491C99.7995 15.6491 100.488 15.9444 101.079 16.5349C101.67 17.1254 101.965 17.8144 101.965 18.7002C101.965 19.4876 101.768 20.1765 101.177 20.767C100.587 21.3576 99.9964 21.6528 99.209 21.7513C98.3232 21.7513 97.5358 21.5544 96.9453 20.9639C96.2563 20.3734 95.9611 19.6844 95.9611 18.7986C95.9611 17.2239 96.9453 15.9444 98.8153 14.8618C100.685 13.7791 102.851 13.287 105.311 13.287C111.512 13.287 114.661 16.2397 114.661 22.0465L114.563 35.5303ZM101.965 34.7429C102.752 36.2192 103.835 37.105 105.311 37.3018C106.689 37.4987 107.87 37.105 108.756 36.1208V22.1449C105.213 24.4086 103.047 26.2786 102.162 27.755C100.882 29.9202 100.784 32.2824 101.965 34.7429Z" fill="var(--fill-0, #0A1821)"/>
<path id="Vector_6" d="M139.659 33.0695C139.954 33.1679 140.151 33.2664 140.249 33.2664C139.56 35.2348 138.478 36.8095 137.001 38.089C135.427 39.2701 133.655 39.959 131.49 39.959C127.848 39.959 124.797 38.8764 122.238 36.5143C119.778 34.1522 118.498 30.8058 118.498 26.2784C118.498 24.1132 118.892 22.1447 119.778 20.2747C120.663 18.5031 121.844 17.0268 123.222 15.9442C124.699 14.8616 126.175 13.9758 127.848 13.4837C129.521 12.8931 131.194 12.7947 132.966 12.9915C134.738 13.1884 136.214 13.7789 137.592 14.7631C139.462 16.0426 140.348 17.4205 140.348 18.9953C140.348 19.881 140.052 20.57 139.363 21.1605C138.674 21.7511 137.986 22.0463 137.1 21.9479C136.312 21.9479 135.623 21.5542 135.033 21.0621C134.541 20.4716 134.245 19.7826 134.245 18.9953C134.245 18.3063 134.442 17.6174 134.934 17.1252C135.427 16.5347 135.919 16.2395 136.608 16.0426C136.804 16.0426 137.001 15.8458 137.001 15.6489C137.1 15.3537 137.001 15.1568 136.804 15.0584C135.328 14.1726 133.95 13.6805 132.671 13.5821C131.391 13.4837 130.21 13.8773 129.128 14.6647C128.045 15.4521 127.159 16.7316 126.47 18.7C125.781 20.6684 125.388 23.129 125.191 26.0816C124.994 30.4121 125.486 33.6601 126.667 35.7269C127.848 37.7938 129.423 38.8764 131.391 39.0732C132.868 39.1717 134.344 38.778 135.919 37.7938C137.493 36.8095 138.871 35.2348 139.659 33.0695Z" fill="var(--fill-0, #0A1821)"/>
<path id="Vector_7" d="M164.067 16.0426C166.233 18.3063 167.315 21.6526 167.315 26.18C167.315 30.7074 166.233 34.0537 164.067 36.3174C161.902 38.5811 159.146 39.6638 155.702 39.6638C152.257 39.6638 149.501 38.5811 147.336 36.3174C145.171 34.0537 144.088 30.7074 144.088 26.18C144.088 21.6526 145.171 18.3063 147.336 16.0426C149.501 13.7789 152.257 12.6963 155.702 12.6963C159.146 12.6963 161.902 13.7789 164.067 16.0426ZM151.962 16.2395C151.273 18.2079 150.879 21.5542 150.879 26.18C150.879 30.8058 151.273 34.1522 151.962 36.1206C152.651 38.1874 153.93 39.1717 155.702 39.1717C157.473 39.1717 158.753 38.1874 159.442 36.1206C160.131 34.0537 160.524 30.8058 160.524 26.0816C160.524 21.4558 160.131 18.2079 159.442 16.141C158.753 14.1726 157.473 13.09 155.702 13.09C153.93 13.2868 152.651 14.271 151.962 16.2395Z" fill="var(--fill-0, #0A1821)"/>
<path id="Vector_8" d="M195.958 38.9749V39.467H189.856C189.364 39.467 188.97 39.3686 188.576 39.1717C188.281 38.9749 188.084 38.6796 187.986 38.3844C187.887 38.0891 187.789 37.6954 187.691 37.3017C187.592 36.9081 187.592 36.5144 187.592 36.1207C187.592 35.727 187.592 35.3333 187.592 35.038C186.313 38.0891 184.049 39.5654 180.604 39.5654C177.356 39.5654 174.896 38.3844 173.124 36.1207C171.353 33.857 170.467 30.5107 170.467 26.0817C170.467 21.7511 171.549 18.4048 173.715 16.0427C175.88 13.6806 178.537 12.4995 181.687 12.4995C184.443 12.4995 186.509 13.4837 187.691 15.4522C187.691 10.4327 187.789 6.98792 187.789 5.21634C187.789 4.72423 187.592 4.52739 187.1 4.52739H186.805V4.03528C190.151 3.74002 192.316 2.46054 193.202 0H193.596V21.6527V37.4002C193.694 37.9907 193.891 38.3844 194.186 38.6796C194.383 38.8765 194.974 38.9749 195.958 38.9749ZM187.691 33.0696V16.9285C186.805 14.468 184.935 13.2869 182.179 13.2869C180.309 13.2869 179.029 14.0743 178.537 15.7474C177.947 17.4206 177.652 20.3732 177.75 24.8022C177.75 25.7864 177.75 26.7706 177.75 27.6564C177.75 28.5422 177.75 29.428 177.848 30.2154C177.848 31.0028 177.947 31.7901 178.045 32.5775C178.144 33.2665 178.242 33.9554 178.341 34.5459C178.439 35.1365 178.636 35.727 178.833 36.1207C179.029 36.6128 179.325 37.0065 179.62 37.3017C179.915 37.597 180.309 37.8923 180.703 37.9907C181.096 38.1875 181.588 38.286 182.179 38.286C183.557 38.286 184.738 37.8923 185.722 37.0065C186.608 36.2191 187.297 34.8412 187.691 33.0696Z" fill="var(--fill-0, #0A1821)"/>
<path id="Vector_9" d="M220.659 24.901H205.207C204.518 33.7589 206.684 38.4831 211.506 38.8768C212.983 38.9752 214.459 38.5816 216.034 37.5973C217.608 36.6131 218.789 35.0384 219.478 32.8731C219.577 32.8731 219.675 32.8731 219.774 32.9715C219.872 33.07 219.971 33.07 220.069 33.07C219.38 35.0384 218.297 36.6131 216.723 37.8926C215.148 39.0737 213.376 39.7626 211.309 39.7626C207.176 39.7626 203.928 38.5816 201.566 36.2194C199.302 33.7589 198.121 30.6094 198.121 26.5741C198.023 22.9325 199.204 19.6846 201.467 16.9288C203.731 14.173 206.979 12.8936 211.014 12.8936C212.294 12.8936 213.475 13.0904 214.557 13.5825C215.64 13.9762 216.723 14.6651 217.707 15.5509C218.691 16.4367 219.38 17.7162 219.971 19.291C220.561 20.8657 220.758 22.7357 220.659 24.901ZM215.837 24.4089C216.427 21.4562 216.23 18.8973 215.148 16.8304C214.164 14.7636 212.786 13.6809 211.113 13.5825C210.424 13.4841 209.735 13.6809 209.144 14.173C208.554 14.6651 207.865 15.4525 207.176 16.732C206.191 18.4052 205.601 20.9641 205.207 24.4089H215.837Z" fill="var(--fill-0, #0A1821)"/>
<path id="Vector_10" d="M236.705 14.5663C237.098 14.8616 237.492 15.0584 237.787 15.2553C238.082 15.4521 238.279 15.4521 238.476 15.3537C238.673 15.2553 238.771 15.1568 238.968 15.1568C239.067 15.0584 239.165 14.8616 239.264 14.5663C239.362 14.1726 239.362 13.9758 239.362 13.7789C239.362 13.5821 239.46 13.2868 239.46 12.8931H239.854C239.756 14.6647 239.657 17.519 239.657 21.3574H239.264C238.968 19.1921 238.082 17.4205 236.803 15.7474C235.523 14.1726 233.85 13.3853 231.685 13.3853C230.504 13.3853 229.618 13.7789 229.028 14.5663C228.437 15.3537 228.142 16.3379 228.142 17.6174C228.142 18.1095 228.24 18.5032 228.437 18.9953C228.634 19.4874 228.831 19.7826 229.028 20.1763C229.225 20.4716 229.618 20.8653 230.11 21.259C230.602 21.6527 230.996 21.9479 231.39 22.1448C231.685 22.3416 232.177 22.7353 232.965 23.2274C233.752 23.7195 234.244 24.0148 234.539 24.31C236.803 25.7864 238.575 27.1643 239.657 28.3453C240.74 29.5264 241.33 31.1011 241.33 32.9711C241.33 35.1364 240.445 36.8096 238.673 38.089C236.901 39.2701 234.736 39.959 232.374 39.959C230.898 39.959 229.618 39.7622 228.437 39.2701C227.945 39.0733 227.551 38.778 227.158 38.5811C226.764 38.2859 226.567 38.089 226.37 37.9906C226.173 37.8922 226.075 37.7938 225.878 37.7938C225.484 37.7938 225.091 37.9906 224.796 38.3843C224.402 38.778 224.205 39.1717 224.205 39.6638H223.811C223.91 37.7938 224.008 34.4474 224.008 29.7232H224.402C224.5 32.6759 225.189 35.038 226.469 36.8096C227.748 38.5811 229.618 39.3685 232.079 39.3685C233.161 39.3685 234.146 38.8764 235.031 37.9906C235.917 37.1048 236.311 35.8253 236.311 34.1522C236.311 33.4632 236.212 32.8727 235.917 32.2822C235.622 31.6916 235.228 31.1011 234.539 30.5106C233.85 29.9201 233.26 29.428 232.866 29.1327C232.374 28.8374 231.587 28.3453 230.504 27.5579C229.225 26.7706 228.339 26.18 227.847 25.7864C227.354 25.3927 226.666 24.9006 225.878 24.1132C225.091 23.3258 224.5 22.6369 224.205 21.8495C223.91 21.0621 223.713 20.1763 223.713 19.1921C223.713 17.1253 224.5 15.5505 226.075 14.4679C227.65 13.3853 229.52 12.7947 231.587 12.7947C233.457 12.6963 235.228 13.2868 236.705 14.5663Z" fill="var(--fill-0, #0A1821)"/>
</g>
</svg>
