<svg preserveAspectRatio="none" width="100%" height="100%" overflow="visible" style="display: block;" viewBox="0 0 52.0873 53.1478" fill="none" xmlns="http://www.w3.org/2000/svg">
<g id="Group">
<path id="Vector" d="M38.297 0.0986328H31.2106L29.1438 6.39761H37.1159L45.3833 31.8888L26.9785 45.3725V53.1478L50.1076 36.3177C51.7807 35.1367 52.4697 32.9714 51.8791 31.003L42.8244 3.34654C42.2338 1.37811 40.3638 0.0986328 38.297 0.0986328Z" fill="var(--fill-0, #05735B)"/>
<path id="Vector_2" d="M19.5972 29.1328L29.0457 0H13.6919C11.6251 0 9.75508 1.3779 9.16455 3.24791L0.208196 31.0028C-0.382333 32.9712 0.306617 35.1365 1.97978 36.3175L25.1088 53.1476V45.3723L16.4477 39.0733L19.5972 29.1328ZM6.50717 31.8886L14.7746 6.3974H20.3846L11.0346 35.2349L6.50717 31.8886Z" fill="var(--fill-0, #05735B)"/>
</g>
</svg>
