<svg preserveAspectRatio="none" width="100%" height="100%" overflow="visible" style="display: block;" viewBox="0 0 20.8334 20.8334" fill="none" xmlns="http://www.w3.org/2000/svg">
<path id="Vector" fill-rule="evenodd" clip-rule="evenodd" d="M10.4167 0C4.66372 0 0 4.66367 0 10.4167C0 16.1696 4.66372 20.8334 10.4167 20.8334C16.1697 20.8334 20.8334 16.1696 20.8334 10.4167C20.8334 4.66367 16.1697 0 10.4167 0ZM10.4167 18.75C5.82168 18.75 2.08335 15.0117 2.08335 10.4167C2.08335 5.82163 5.82163 2.08335 10.4167 2.08335C15.0117 2.08335 18.75 5.82163 18.75 10.4167C18.75 15.0117 15.0117 18.75 10.4167 18.75ZM11.721 6.25C11.721 7.00527 11.1711 7.5521 10.4272 7.5521C9.65327 7.5521 9.11685 7.00522 9.11685 6.23555C9.11685 5.4958 9.66777 4.94795 10.4272 4.94795C11.1711 4.94795 11.721 5.4958 11.721 6.25ZM9.37729 9.375H11.4606V15.625H9.37729V9.375Z" fill="var(--fill-0, #4AAD97)"/>
</svg>
