<svg preserveAspectRatio="none" width="100%" height="100%" overflow="visible" style="display: block;" viewBox="0 0 30 30" fill="none" xmlns="http://www.w3.org/2000/svg">
<path id="Vector" d="M11.2083 30H5.00093C3.6746 30 2.4026 29.4732 1.46474 28.5355C0.526882 27.5979 0 26.3261 0 25V18.75C0 17.4239 0.526882 16.1521 1.46474 15.2145C2.4026 14.2768 3.6746 13.75 5.00093 13.75H16.0742C16.7509 13.7503 17.416 13.9253 18.0051 14.2579C18.5943 14.5905 19.0876 15.0696 19.4374 15.6488L23.4594 11.23C23.792 10.8642 24.1936 10.5676 24.641 10.3571C25.0884 10.1465 25.5729 10.0262 26.0668 10.003C26.5607 9.97979 27.0544 10.0541 27.5196 10.2218C27.9847 10.3894 28.4123 10.6471 28.7779 10.98C29.5072 11.6499 29.9443 12.5794 29.995 13.5683C30.0458 14.5572 29.7061 15.5265 29.0492 16.2675L20.5476 25.8137C19.3737 27.13 17.9349 28.1834 16.3255 28.9048C14.716 29.6263 12.9722 29.9995 11.2083 30ZM5.00093 16.25C4.33777 16.25 3.70176 16.5134 3.23283 16.9822C2.76391 17.4511 2.50047 18.087 2.50047 18.75V25C2.50047 25.663 2.76391 26.2989 3.23283 26.7678C3.70176 27.2366 4.33777 27.5 5.00093 27.5H11.2083C12.6185 27.4994 14.0126 27.2009 15.2993 26.624C16.5861 26.0471 17.7363 25.2049 18.6747 24.1525L27.1826 14.605C27.4035 14.3562 27.5178 14.0307 27.501 13.6985C27.4841 13.3662 27.3375 13.0539 27.0925 12.8287C26.8435 12.6049 26.517 12.487 26.1824 12.5C26.0165 12.507 25.8537 12.547 25.7034 12.6176C25.5532 12.6882 25.4185 12.788 25.3072 12.9113L19.7737 19C19.5307 19.6722 19.1098 20.2659 18.5558 20.7176C18.0018 21.1694 17.3356 21.4622 16.6281 21.565L10.1756 22.4875C9.84738 22.5346 9.51385 22.4493 9.24844 22.2506C8.98303 22.0518 8.80747 21.7557 8.76038 21.4275C8.7133 21.0993 8.79854 20.7658 8.99737 20.5005C9.19619 20.2351 9.49231 20.0596 9.82058 20.0125L16.2743 19.0912C16.6325 19.0412 16.9584 18.857 17.1861 18.576C17.4137 18.295 17.5262 17.938 17.5008 17.5773C17.4754 17.2165 17.314 16.8788 17.0492 16.6325C16.7844 16.3861 16.436 16.2494 16.0742 16.25H5.00093ZM13.7526 11.3425C13.1859 11.344 12.6358 11.1517 12.1935 10.7975C10.0531 9.08 7.5014 6.5 7.5014 4C7.4707 2.97296 7.84806 1.97556 8.55094 1.22596C9.25383 0.476354 10.225 0.0355653 11.2521 0C12.1864 0.00363853 13.0829 0.369772 13.7526 1.02125C14.4222 0.369772 15.3187 0.00363853 16.253 0C17.2801 0.0355653 18.2513 0.476354 18.9542 1.22596C19.6571 1.97556 20.0344 2.97296 20.0037 4C20.0037 6.5 17.452 9.08 15.3103 10.7987C14.8683 11.1522 14.3186 11.3441 13.7526 11.3425V11.3425ZM11.2521 2.5C10.8887 2.53645 10.5542 2.71402 10.3204 2.99453C10.0866 3.27504 9.9722 3.63607 10.0019 4C10.0019 5.125 11.4409 6.9875 13.7601 8.84875C16.0642 6.9875 17.5033 5.125 17.5033 4C17.5329 3.63607 17.4186 3.27504 17.1848 2.99453C16.951 2.71402 16.6164 2.53645 16.253 2.5C15.8896 2.53645 15.5551 2.71402 15.3213 2.99453C15.0875 3.27504 14.9731 3.63607 15.0028 4C15.0028 4.33152 14.8711 4.64946 14.6366 4.88388C14.4021 5.1183 14.0841 5.25 13.7526 5.25C13.421 5.25 13.103 5.1183 12.8685 4.88388C12.634 4.64946 12.5023 4.33152 12.5023 4C12.532 3.63607 12.4176 3.27504 12.1838 2.99453C11.95 2.71402 11.6155 2.53645 11.2521 2.5V2.5Z" fill="var(--fill-0, #4AAD97)"/>
</svg>
