<svg preserveAspectRatio="none" width="100%" height="100%" overflow="visible" style="display: block;" viewBox="0 0 29 25" fill="none" xmlns="http://www.w3.org/2000/svg">
<path id="Vector" d="M27.7917 15.4744H26.9858C26.6837 15.4744 26.3841 15.497 26.0856 15.5423L17.5721 9.253L19.6116 7.32956C20.0937 6.87488 20.1107 6.12026 19.6491 5.64654C19.1863 5.17163 18.4203 5.15616 17.9406 5.60965L12.8984 10.3647C12.6471 10.6123 12.3052 10.7396 11.9463 10.7099C11.5862 10.6813 11.2697 10.5016 11.0534 10.204C10.7223 9.75171 10.8238 9.04352 11.2564 8.61622L16.9389 3.3446C18.0155 2.34836 19.6986 2.10436 21.0157 2.75543L23.8141 4.13374C24.6478 4.54437 25.583 4.761 26.5146 4.761H27.7905C28.4587 4.761 28.9988 4.22896 28.9988 3.57075C28.9988 2.91254 28.4587 2.3805 27.7905 2.3805H26.5146C25.9551 2.3805 25.3933 2.25076 24.893 2.00438L22.0971 0.626071C19.8932 -0.460626 17.0791 -0.0571319 15.2812 1.6116L14.5344 2.30432L13.6886 1.54494C12.5782 0.548705 11.1404 0 9.59256 0C8.66097 0 7.7318 0.216625 6.90171 0.624881L4.10575 2.00319C3.60431 2.24957 3.04246 2.37931 2.48302 2.37931H1.20949C0.541311 2.37931 0.00120828 2.91135 0.00120828 3.56956C0.00120828 4.22777 0.541311 4.75981 1.20949 4.75981H2.48544C3.41702 4.75981 4.35224 4.54199 5.18716 4.13255L7.98554 2.75424C9.22041 2.14245 10.9555 2.30789 12.0623 3.30413L12.7716 3.94092L9.57443 6.90702C8.27795 8.18296 8.07133 10.2004 9.09354 11.5942C9.72185 12.4548 10.97 13.0927 12.0466 13.0927C13.0048 13.0927 13.9243 12.7214 14.5888 12.0656L15.8043 10.9193L23.4721 16.5837C23.4346 16.6099 15.9832 22.1136 15.9832 22.1136C15.1096 22.7826 13.8904 22.7826 12.9987 22.1006L5.63906 16.6635C4.60114 15.8958 3.31311 15.4732 2.01421 15.4732H1.20828C0.540103 15.4732 0 16.0053 0 16.6635C0 17.3217 0.540103 17.8537 1.20828 17.8537H2.01421C2.79355 17.8537 3.56564 18.1073 4.18912 18.5679L11.5319 23.993C12.4079 24.6643 13.4579 25 14.5054 25C15.547 25 16.5873 24.6679 17.45 24.0061L24.8121 18.5691C25.4344 18.1085 26.2065 17.8549 26.9858 17.8549H27.7917C28.4599 17.8549 29 17.3229 29 16.6647C29 16.0065 28.4599 15.4744 27.7917 15.4744Z" fill="var(--fill-0, #4AAD97)"/>
</svg>
