<svg preserveAspectRatio="none" width="100%" height="100%" overflow="visible" style="display: block;" viewBox="0 0 40 40" fill="none" xmlns="http://www.w3.org/2000/svg">
<g id="Group 10642">
<rect id="Rectangle 1092" width="40" height="40" rx="10" fill="var(--fill-0, #07725B)" fill-opacity="0.4"/>
<path id="Vector" d="M15 19.5823C14.999 20.1615 15.1121 20.7352 15.3329 21.2706C15.5538 21.8061 15.878 22.2928 16.287 22.7028L23.489 29.9048C23.655 30.0708 23.8801 30.1641 24.1149 30.1641C24.3496 30.1641 24.5748 30.0708 24.7408 29.9048C24.9067 29.7388 25 29.5137 25 29.2789C25 29.0442 24.9067 28.8191 24.7408 28.6531L17.5388 21.4511C17.0435 20.9552 16.7654 20.2831 16.7654 19.5823C16.7654 18.8815 17.0435 18.2093 17.5388 17.7135L24.7408 10.5115C24.9067 10.3455 25 10.1203 25 9.8856C25 9.65085 24.9067 9.42572 24.7408 9.25973C24.5748 9.09373 24.3496 9.00048 24.1149 9.00048C23.8801 9.00048 23.655 9.09373 23.489 9.25973L16.287 16.4617C15.878 16.8718 15.5538 17.3585 15.3329 17.8939C15.1121 18.4293 14.999 19.0031 15 19.5823V19.5823Z" fill="var(--fill-0, white)"/>
</g>
</svg>
