<svg preserveAspectRatio="none" width="100%" height="100%" overflow="visible" style="display: block;" viewBox="0 0 25 24.9996" fill="none" xmlns="http://www.w3.org/2000/svg">
<path id="Vector" d="M13.523 1.04503C13.523 0.768314 13.6329 0.50293 13.8286 0.307261C14.0242 0.111592 14.2896 0.00166622 14.5663 0.00166622C17.3326 0.00470408 19.9847 1.10494 21.9407 3.06097C23.8967 5.017 24.997 7.66908 25 10.4353C25 10.712 24.8901 10.9774 24.6944 11.1731C24.4987 11.3688 24.2334 11.4787 23.9566 11.4787C23.6799 11.4787 23.4145 11.3688 23.2189 11.1731C23.0232 10.9774 22.9133 10.712 22.9133 10.4353C22.9108 8.22234 22.0306 6.10071 20.4658 4.5359C18.901 2.97109 16.7793 2.09088 14.5663 2.0884C14.2896 2.0884 14.0242 1.97847 13.8286 1.7828C13.6329 1.58713 13.523 1.32175 13.523 1.04503V1.04503ZM14.5663 6.26186C15.6732 6.26186 16.7348 6.70156 17.5174 7.48424C18.3001 8.26691 18.7398 9.32845 18.7398 10.4353C18.7398 10.712 18.8497 10.9774 19.0454 11.1731C19.2411 11.3688 19.5065 11.4787 19.7832 11.4787C20.0599 11.4787 20.3253 11.3688 20.5209 11.1731C20.7166 10.9774 20.8265 10.712 20.8265 10.4353C20.8249 8.77552 20.1648 7.18418 18.9911 6.01053C17.8175 4.83687 16.2261 4.17679 14.5663 4.17513C14.2896 4.17513 14.0242 4.28505 13.8286 4.48072C13.6329 4.67639 13.523 4.94178 13.523 5.21849C13.523 5.49521 13.6329 5.7606 13.8286 5.95626C14.0242 6.15193 14.2896 6.26186 14.5663 6.26186V6.26186ZM24.0537 17.4666C24.6583 18.0729 24.9979 18.8942 24.9979 19.7505C24.9979 20.6068 24.6583 21.4281 24.0537 22.0344L23.1042 23.1289C14.559 31.3099 -6.23523 10.5209 1.81955 1.94859L3.01942 0.905221C3.62642 0.317469 4.44041 -0.00767286 5.2853 0.000137526C6.13019 0.00794791 6.93803 0.348083 7.53406 0.946955C7.56641 0.9793 9.49976 3.49068 9.49976 3.49068C10.0734 4.09336 10.3928 4.89393 10.3914 5.72599C10.3901 6.55805 10.0681 7.35757 9.49246 7.95837L8.28424 9.47751C8.95288 11.1021 9.93596 12.5787 11.177 13.8222C12.418 15.0657 13.8925 16.0518 15.5158 16.7237L17.0443 15.5082C17.6452 14.933 18.4446 14.6114 19.2764 14.6102C20.1082 14.6091 20.9085 14.9284 21.511 15.5019C21.511 15.5019 24.0213 17.4342 24.0537 17.4666ZM22.618 18.9836C22.618 18.9836 20.1212 17.0628 20.0889 17.0304C19.8739 16.8173 19.5835 16.6977 19.2808 16.6977C18.9781 16.6977 18.6877 16.8173 18.4727 17.0304C18.4445 17.0596 16.3401 18.7363 16.3401 18.7363C16.1982 18.8492 16.0295 18.9232 15.8504 18.951C15.6712 18.9788 15.488 18.9595 15.3186 18.8949C13.2157 18.112 11.3056 16.8862 9.71765 15.3006C8.12975 13.7151 6.90116 11.8068 6.11509 9.70497C6.04539 9.53329 6.02266 9.34614 6.04925 9.16277C6.07584 8.9794 6.15078 8.80641 6.26637 8.6616C6.26637 8.6616 7.94306 6.55609 7.97123 6.52896C8.18436 6.31401 8.30394 6.02357 8.30394 5.72087C8.30394 5.41818 8.18436 5.12774 7.97123 4.91279C7.93889 4.88149 6.01805 2.38263 6.01805 2.38263C5.79988 2.187 5.51515 2.08224 5.22222 2.0898C4.92929 2.09737 4.65035 2.21669 4.44257 2.42332L3.2427 3.46668C-2.64397 10.5449 15.376 27.5653 21.5788 21.7037L22.5293 20.6081C22.752 20.4018 22.8858 20.117 22.9024 19.8138C22.9189 19.5107 22.817 19.213 22.618 18.9836V18.9836Z" fill="var(--fill-0, white)"/>
</svg>
