<svg preserveAspectRatio="none" width="100%" height="100%" overflow="visible" style="display: block;" viewBox="0 0 80 80" fill="none" xmlns="http://www.w3.org/2000/svg">
<g id="Group 17">
<circle id="Ellipse 7" cx="40" cy="40" r="40" fill="var(--fill-0, #4AAD97)"/>
<g id="qlementine-icons:money-16">
<path id="Vector" fill-rule="evenodd" clip-rule="evenodd" d="M50.5 58C57.97 58 64 55 64 50.5V22C64 19 58 16 50.5 16C43 16 37 19 37 22V32.5C40.51 33.97 43.51 36.43 45.64 39.55C47.11 39.838 48.73 39.997 50.5 39.997C54.43 39.997 57.7 39.214 60.04 37.939C60.3722 37.7564 60.6956 37.5582 61.009 37.345V41.485C61.009 42.19 60.448 43.285 58.603 44.293C56.815 45.268 54.073 45.985 50.503 45.985C49.789 45.985 49.109 45.958 48.463 45.904C48.703 46.89 48.863 47.9 48.943 48.934C49.449 48.962 49.969 48.976 50.503 48.976C54.433 48.976 57.703 48.193 60.043 46.918C60.3752 46.7354 60.6986 46.5372 61.012 46.324V50.464C61.012 51.172 60.565 52.222 58.639 53.26C56.743 54.28 53.899 54.964 50.509 54.964C49.819 54.964 49.151 54.936 48.505 54.88C48.2744 55.8772 47.9644 56.8543 47.578 57.802C48.522 57.908 49.498 57.961 50.506 57.961L50.5 58ZM58.6 35.32C60.445 34.312 61.006 33.217 61.006 32.512V28.372C60.696 28.584 60.373 28.782 60.037 28.966C57.703 30.241 54.427 31.024 50.497 31.024C46.567 31.024 43.297 30.241 40.957 28.966C40.6248 28.7834 40.3014 28.5852 39.988 28.372V32.512C39.988 33.217 40.549 34.312 42.394 35.317C44.182 36.292 46.924 37.009 50.494 37.009C54.064 37.009 56.794 36.292 58.594 35.317L58.6 35.32ZM40 23.5C40 22.636 40.375 21.805 41.074 21.298C41.455 21.022 41.869 20.746 42.196 20.596C43.015 20.218 47.116 18.997 50.506 18.997C53.896 18.997 56.836 19.678 58.816 20.596C59.188 20.767 59.599 21.034 59.962 21.298C60.655 21.799 61.012 22.624 61.012 23.479V23.497C61.012 24.202 60.451 25.297 58.606 26.305C56.818 27.28 54.076 27.997 50.506 27.997C46.936 27.997 44.206 27.277 42.406 26.305C40.561 25.3 40 24.202 40 23.5Z" fill="var(--fill-0, white)"/>
<path id="Vector_2" fill-rule="evenodd" clip-rule="evenodd" d="M43 50.5C43 57.97 36.97 64 29.5 64C22.03 64 16 57.97 16 50.5C16 43.03 22.03 37 29.5 37C36.97 37 43 43.03 43 50.5ZM40 50.5C40 56.29 35.29 61 29.5 61C23.71 61 19 56.29 19 50.5C19 44.71 23.71 40 29.5 40C35.29 40 40 44.71 40 50.5Z" fill="var(--fill-0, white)"/>
</g>
</g>
</svg>
