<svg preserveAspectRatio="none" width="100%" height="100%" overflow="visible" style="display: block;" viewBox="0 0 80 80" fill="none" xmlns="http://www.w3.org/2000/svg">
<g id="Group 17">
<circle id="Ellipse 6" cx="40" cy="40" r="40" fill="var(--fill-0, #4AAD97)"/>
<g id="mdi:cloud-security-outline">
<path id="Vector" d="M34.1375 53.67C34.3302 54.827 33.5176 55.9999 32.3446 55.9999H29.0001C26.0001 55.9999 23.3601 54.9999 21.2201 52.8599C19.0801 50.7599 18.0001 48.1799 18.0001 45.1599C18.0001 42.5599 18.7801 40.2399 20.3401 38.1999C21.6145 36.5298 23.3544 35.288 25.3274 34.6216C26.0355 34.3825 26.6134 33.8431 26.8677 33.1403C27.7841 30.6073 29.3238 28.5139 31.5001 26.8599C34.0001 24.9999 36.8401 23.9999 40.0001 23.9999C43.9001 23.9999 47.22 25.3599 49.92 28.0799C52.2157 30.3586 53.5426 33.079 53.9007 36.2169C54.0161 37.228 54.7753 38.06 55.747 38.3623C57.2877 38.8416 58.6174 39.7208 59.7201 40.9999C60.4854 41.8729 61.0505 42.8173 61.424 43.8376C61.8325 44.9534 60.8843 45.9999 59.696 45.9999H59.5597C58.6063 45.9999 57.8324 45.2925 57.3461 44.4725C57.1318 44.1112 56.8648 43.7759 56.5401 43.4599C55.5801 42.4799 54.4001 41.9999 53.0001 41.9999H52.0001C50.8955 41.9999 50.0001 41.1045 50.0001 39.9999V37.9999C50.0001 35.2399 49.0001 32.8799 47.0801 30.9199C45.1401 28.9999 42.7801 27.9999 40.0001 27.9999C37.2401 27.9999 34.8801 28.9999 32.9201 30.9199C31.2358 32.6392 30.2595 34.6663 30.0451 37.0012C29.9946 37.5512 29.5523 37.9999 29.0001 37.9999C27.0601 37.9999 25.4201 38.6799 24.0601 40.0599C22.6801 41.4199 22.0001 43.0599 22.0001 44.9999C22.0001 46.9399 22.6801 48.5999 24.0601 49.9999C25.4201 51.3399 27.0601 51.9999 29.0001 51.9999H32.3643C33.2677 51.9999 33.9891 52.7789 34.1375 53.67ZM60.0001 49.9999C61.1046 49.9999 62.0001 50.8953 62.0001 51.9999C62.0001 53.1045 61.1046 53.9999 60.0001 53.9999C58.8955 53.9999 58.0001 54.8953 58.0001 55.9999C58.0001 57.1045 57.1046 57.9999 56.0001 57.9999C54.8955 57.9999 54.0001 57.1045 54.0001 55.9999C54.0001 54.8953 53.1046 53.9999 52.0001 53.9999H51.0416C50.1807 53.9999 49.4451 54.5724 48.9843 55.2995C47.9321 56.9601 46.0961 57.9999 44.0001 57.9999C40.6001 57.9999 38.0001 55.3999 38.0001 51.9999C38.0001 48.5999 40.6001 45.9999 44.0001 45.9999C46.0961 45.9999 47.9321 47.0397 48.9843 48.7002C49.4451 49.4274 50.1807 49.9999 51.0416 49.9999H60.0001ZM46.0001 51.9999C46.0001 50.9999 45.2001 49.9999 44.0001 49.9999C42.8001 49.9999 42.0001 50.9999 42.0001 51.9999C42.0001 52.9999 42.8001 53.9999 44.0001 53.9999C45.2001 53.9999 46.0001 52.9999 46.0001 51.9999Z" fill="var(--fill-0, white)"/>
</g>
</g>
</svg>
