<svg preserveAspectRatio="none" width="100%" height="100%" overflow="visible" style="display: block;" viewBox="0 0 45 42.9999" fill="none" xmlns="http://www.w3.org/2000/svg">
<g id="Group">
<path id="Vector" d="M43.5 11.5C43.5 14.1522 42.4465 16.6957 40.5711 18.5711C38.6957 20.4464 36.1522 21.5 33.5 21.5C30.8479 21.5 28.3043 20.4464 26.429 18.5711C24.5536 16.6957 23.5 14.1522 23.5 11.5C23.5 8.84784 24.5536 6.3043 26.429 4.42893C28.3043 2.55357 30.8479 1.5 33.5 1.5C36.1522 1.5 38.6957 2.55357 40.5711 4.42893C42.4465 6.3043 43.5 8.84784 43.5 11.5Z" stroke="var(--stroke-0, white)" stroke-width="3"/>
<path id="Vector_2" d="M33.5 6.4999V11.4999H38.5M12.5 33.4999H22.5L34.75 29.7299C35.5302 29.4907 36.3556 29.4378 37.1599 29.5753C37.9642 29.7129 38.7251 30.0371 39.3815 30.5219C40.0378 31.0067 40.5714 31.6387 40.9393 32.3671C41.3072 33.0954 41.4993 33.8999 41.5 34.7159V35.4999L22.5 41.4999H1.5M22.5 33.4999V27.4999L9.92 25.5639C9.06409 25.4321 8.1898 25.487 7.35708 25.7247C6.52437 25.9625 5.75291 26.3775 5.09561 26.9413C4.43831 27.5052 3.91072 28.2045 3.549 28.9913C3.18729 29.7781 3.00001 30.6339 3 31.4999" stroke="var(--stroke-0, white)" stroke-width="3" stroke-linecap="round"/>
</g>
</svg>
