<svg preserveAspectRatio="none" width="100%" height="100%" overflow="visible" style="display: block;" viewBox="0 0 80 80" fill="none" xmlns="http://www.w3.org/2000/svg">
<g id="Group 17">
<circle id="Ellipse 7" cx="40" cy="40" r="40" fill="var(--fill-0, #4AAD97)"/>
<g id="material-symbols:backup-outline-rounded">
<path id="Vector" d="M38 41.7L36.2 43.45C35.8333 43.8167 35.3753 44 34.826 44C34.2767 44 33.8013 43.8 33.4 43.4C33.0333 43.0333 32.85 42.5667 32.85 42C32.85 41.4333 33.0333 40.9667 33.4 40.6L38.6 35.4C39 35 39.4667 34.8 40 34.8C40.5333 34.8 41 35 41.4 35.4L46.6 40.6C46.9667 40.9667 47.158 41.4253 47.174 41.976C47.19 42.5267 46.9987 43.0013 46.6 43.4C46.2333 43.7667 45.7753 43.9587 45.226 43.976C44.6767 43.9933 44.2013 43.818 43.8 43.45L42 41.7V52H53C54.4 52 55.5833 51.5167 56.55 50.55C57.5167 49.5833 58 48.4 58 47C58 45.6 57.5167 44.4167 56.55 43.45C55.5833 42.4833 54.4 42 53 42H50V38C50 35.2333 49.0247 32.8747 47.074 30.924C45.1233 28.9733 42.7653 27.9987 40 28C37.2347 28.0013 34.8767 28.9767 32.926 30.926C30.9753 32.8753 30 35.2333 30 38H29C27.0667 38 25.4167 38.6833 24.05 40.05C22.6833 41.4167 22 43.0667 22 45C22 46.9333 22.6833 48.5833 24.05 49.95C25.4167 51.3167 27.0667 52 29 52H32C32.5667 52 33.042 52.192 33.426 52.576C33.81 52.96 34.0013 53.4347 34 54C33.9987 54.5653 33.8067 55.0407 33.424 55.426C33.0413 55.8113 32.5667 56.0027 32 56H29C25.9667 56 23.3753 54.95 21.226 52.85C19.0767 50.75 18.0013 48.1833 18 45.15C18 42.55 18.7833 40.2333 20.35 38.2C21.9167 36.1667 23.9667 34.8667 26.5 34.3C27.3333 31.2333 29 28.75 31.5 26.85C34 24.95 36.8333 24 40 24C43.9 24 47.2087 25.3587 49.926 28.076C52.6433 30.7933 54.0013 34.1013 54 38C56.3 38.2667 58.2087 39.2587 59.726 40.976C61.2433 42.6933 62.0013 44.7013 62 47C62 49.5 61.1253 51.6253 59.376 53.376C57.6267 55.1267 55.5013 56.0013 53 56H42C40.9 56 39.9587 55.6087 39.176 54.826C38.3933 54.0433 38.0013 53.1013 38 52V41.7Z" fill="var(--fill-0, white)"/>
</g>
</g>
</svg>
