<svg preserveAspectRatio="none" width="100%" height="100%" overflow="visible" style="display: block;" viewBox="0 0 80 80" fill="none" xmlns="http://www.w3.org/2000/svg">
<g id="Group 17">
<circle id="Ellipse 6" cx="40" cy="40" r="40" fill="var(--fill-0, #4AAD97)"/>
<g id="carbon:gateway-user-access">
<path id="Vector" d="M47.5 49H44.5V46C44.5 45.6022 44.342 45.2206 44.0607 44.9393C43.7794 44.658 43.3978 44.5 43 44.5H37C36.6022 44.5 36.2206 44.658 35.9393 44.9393C35.658 45.2206 35.5 45.6022 35.5 46V49H32.5V46C32.5012 44.8069 32.9757 43.663 33.8193 42.8193C34.663 41.9757 35.8069 41.5012 37 41.5H43C44.1931 41.5012 45.337 41.9757 46.1807 42.8193C47.0243 43.663 47.4988 44.8069 47.5 46V49ZM40 40C38.9616 40 37.9466 39.6921 37.0833 39.1152C36.2199 38.5383 35.547 37.7184 35.1496 36.7591C34.7523 35.7998 34.6483 34.7442 34.8509 33.7258C35.0534 32.7074 35.5535 31.7719 36.2877 31.0377C37.0219 30.3035 37.9574 29.8034 38.9758 29.6009C39.9942 29.3983 41.0498 29.5023 42.0091 29.8996C42.9684 30.297 43.7883 30.9699 44.3652 31.8333C44.9421 32.6966 45.25 33.7116 45.25 34.75C45.2484 36.1419 44.6948 37.4763 43.7106 38.4606C42.7263 39.4448 41.3919 39.9984 40 40ZM40 32.5C39.555 32.5 39.12 32.632 38.75 32.8792C38.38 33.1264 38.0916 33.4778 37.9213 33.889C37.751 34.3001 37.7064 34.7525 37.7932 35.189C37.88 35.6254 38.0943 36.0263 38.409 36.341C38.7237 36.6557 39.1246 36.8699 39.561 36.9568C39.9975 37.0436 40.4499 36.999 40.861 36.8287C41.2722 36.6584 41.6236 36.37 41.8708 36C42.118 35.63 42.25 35.195 42.25 34.75C42.25 34.1533 42.0129 33.581 41.591 33.159C41.169 32.7371 40.5967 32.5 40 32.5Z" fill="var(--fill-0, white)"/>
<path id="Vector_2" d="M61.621 42.121C62.1834 41.5584 62.4994 40.7955 62.4994 40C62.4994 39.2045 62.1834 38.4416 61.621 37.879L52.9405 29.1985L57.2905 24.9055C57.9321 25.0652 58.6085 25.0087 59.2148 24.7448C59.821 24.4808 60.3232 24.0241 60.6434 23.4456C60.9635 22.8671 61.0838 22.1991 60.9856 21.5452C60.8873 20.8913 60.576 20.2882 60.1 19.8293C59.6239 19.3704 59.0097 19.0815 58.3527 19.0074C57.6956 18.9332 57.0325 19.078 56.4661 19.4192C55.8998 19.7605 55.4619 20.2791 55.2204 20.8946C54.9789 21.5102 54.9473 22.1882 55.1305 22.8235L50.8195 27.0775L42.121 18.3775C41.5584 17.8151 40.7955 17.4991 40 17.4991C39.2045 17.4991 38.4416 17.8151 37.879 18.3775L29.1985 27.061L24.9055 22.708C25.0644 22.0662 25.0071 21.3899 24.7424 20.7841C24.4777 20.1782 24.0205 19.6766 23.4416 19.3572C22.8628 19.0377 22.1947 18.9181 21.541 19.0171C20.8873 19.1161 20.2845 19.428 19.8262 19.9045C19.3679 20.381 19.0796 20.9955 19.0061 21.6525C18.9326 22.3096 19.078 22.9725 19.4198 23.5385C19.7615 24.1045 20.2805 24.5419 20.8962 24.7828C21.5119 25.0237 22.1899 25.0547 22.825 24.871L27.0775 29.1805L18.3775 37.879C17.8151 38.4416 17.4991 39.2045 17.4991 40C17.4991 40.7955 17.8151 41.5584 18.3775 42.121L27.0775 50.8195L22.825 55.129C22.1912 54.9465 21.5149 54.9781 20.901 55.2189C20.287 55.4598 19.7696 55.8965 19.429 56.4613C19.0884 57.0261 18.9437 57.6874 19.0172 58.3429C19.0907 58.9983 19.3783 59.6112 19.8355 60.0865C20.2927 60.5619 20.894 60.8731 21.546 60.972C22.1981 61.0709 22.8646 60.952 23.4422 60.6336C24.0198 60.3152 24.4763 59.8152 24.7408 59.2111C25.0054 58.6069 25.0633 57.9324 24.9055 57.292L29.1985 52.942L37.879 61.621C38.4416 62.1834 39.2045 62.4994 40 62.4994C40.7955 62.4994 41.5584 62.1834 42.121 61.621L50.821 52.9225L55.129 57.1765C54.9465 57.8103 54.9781 58.4866 55.2189 59.1005C55.4598 59.7145 55.8965 60.2319 56.4613 60.5725C57.0261 60.9131 57.6874 61.0578 58.3429 60.9843C58.9983 60.9108 59.6112 60.6232 60.0865 60.166C60.5619 59.7088 60.8731 59.1075 60.972 58.4555C61.0709 57.8034 60.952 57.1369 60.6336 56.5593C60.3152 55.9817 59.8152 55.5252 59.2111 55.2607C58.6069 54.9961 57.9324 54.9382 57.292 55.096L52.942 50.8015L61.621 42.121ZM40 59.5L20.5 40L40 20.5L59.5 40L40 59.5Z" fill="var(--fill-0, white)"/>
</g>
</g>
</svg>
