<svg preserveAspectRatio="none" width="100%" height="100%" overflow="visible" style="display: block;" viewBox="0 0 38.9982 43" fill="none" xmlns="http://www.w3.org/2000/svg">
<g id="Group">
<path id="Vector" d="M29.22 7.5C28.952 5.762 28.44 4.518 27.472 3.55C25.42 1.5 22.118 1.5 15.512 1.5C8.906 1.5 5.604 1.5 3.552 3.55C1.5 5.6 1.5 8.9 1.5 15.5V27.5C1.5 34.1 1.5 37.4 3.552 39.45C5.604 41.5 8.906 41.5 15.512 41.5C22.118 41.5 25.42 41.5 27.472 39.45C29.06 37.864 29.418 35.53 29.5 31.5" stroke="var(--stroke-0, white)" stroke-width="3" stroke-linecap="round" stroke-linejoin="round"/>
<path id="Vector_2" d="M15.75 35.5H15.5M31.5 25.5C32.5531 25.4997 33.5876 25.2222 34.4996 24.6953C35.4115 24.1685 36.1686 23.411 36.695 22.4988C37.2214 21.5866 37.4984 20.552 37.4982 19.4988C37.498 18.4457 37.2206 17.4112 36.6938 16.4992C36.1671 15.5872 35.4097 14.83 34.4976 14.3035C33.5854 13.777 32.5508 13.4999 31.4977 13.5C30.4446 13.5001 29.41 13.7774 28.498 14.304C27.5859 14.8306 26.8286 15.588 26.302 16.5H11.5L9.5 19.5L13.5 24.5L16.5 22.5L19.5 24.5L22.5 22.5H26.302C26.8288 23.4124 27.5865 24.17 28.499 24.6966C29.4114 25.2232 30.4465 25.5003 31.5 25.5ZM16 35.5C16 35.6326 15.9473 35.7598 15.8536 35.8536C15.7598 35.9473 15.6326 36 15.5 36C15.3674 36 15.2402 35.9473 15.1464 35.8536C15.0527 35.7598 15 35.6326 15 35.5C15 35.3674 15.0527 35.2402 15.1464 35.1464C15.2402 35.0527 15.3674 35 15.5 35C15.6326 35 15.7598 35.0527 15.8536 35.1464C15.9473 35.2402 16 35.3674 16 35.5Z" stroke="var(--stroke-0, white)" stroke-width="3" stroke-linecap="round" stroke-linejoin="round"/>
<path id="Vector_3" d="M31.75 19.5H31.5M32 19.5C32 19.6326 31.9473 19.7598 31.8536 19.8536C31.7598 19.9473 31.6326 20 31.5 20C31.3674 20 31.2402 19.9473 31.1464 19.8536C31.0527 19.7598 31 19.6326 31 19.5C31 19.3674 31.0527 19.2402 31.1464 19.1464C31.2402 19.0527 31.3674 19 31.5 19C31.6326 19 31.7598 19.0527 31.8536 19.1464C31.9473 19.2402 32 19.3674 32 19.5Z" stroke="var(--stroke-0, white)" stroke-width="3" stroke-linecap="round" stroke-linejoin="round"/>
</g>
</svg>
