<svg preserveAspectRatio="none" width="100%" height="100%" overflow="visible" style="display: block;" viewBox="0 0 80 80" fill="none" xmlns="http://www.w3.org/2000/svg">
<g id="Group 17">
<circle id="Ellipse 7" cx="40" cy="40" r="40" fill="var(--fill-0, #4AAD97)"/>
<g id="tabler:clock-24">
<path id="Vector" d="M33.996 56.97C30.4874 55.7286 27.4499 53.4302 25.3016 50.3911C23.1533 47.352 21.9998 43.7217 22 40C22 37.6362 22.4656 35.2956 23.3702 33.1117C24.2748 30.9278 25.6006 28.9435 27.2721 27.2721C28.9435 25.6006 30.9278 24.2748 33.1117 23.3702C35.2956 22.4656 37.6362 22 40 22C42.3638 22 44.7044 22.4656 46.8883 23.3702C49.0722 24.2748 51.0565 25.6006 52.7279 27.2721C54.3994 28.9435 55.7252 30.9278 56.6298 33.1117C57.5344 35.2956 58 37.6362 58 40M40 30V40M40 46H44C44.5304 46 45.0391 46.2107 45.4142 46.5858C45.7893 46.9609 46 47.4696 46 48V50C46 50.5304 45.7893 51.0391 45.4142 51.4142C45.0391 51.7893 44.5304 52 44 52H42C41.4696 52 40.9609 52.2107 40.5858 52.5858C40.2107 52.9609 40 53.4696 40 54V56C40 56.5304 40.2107 57.0391 40.5858 57.4142C40.9609 57.7893 41.4696 58 42 58H46M52 46V50C52 50.5304 52.2107 51.0391 52.5858 51.4142C52.9609 51.7893 53.4696 52 54 52H56M58 46V58" stroke="var(--stroke-0, white)" stroke-width="4" stroke-linecap="round" stroke-linejoin="round"/>
</g>
</g>
</svg>
