<svg preserveAspectRatio="none" width="100%" height="100%" overflow="visible" style="display: block;" viewBox="0 0 80.5244 80.5696" fill="none" xmlns="http://www.w3.org/2000/svg">
<g id="surface1">
<path id="Vector" d="M35.9502 80.4375C17.3408 78.4219 2.61426 63.8945 0.208007 45.1836C-0.0693358 43.0156 -0.0693358 37.6015 0.208007 35.4336C1.96582 21.7539 10.1299 10.2578 22.4189 4.15624C32.1689 -0.683608 43.9502 -1.33595 54.1182 2.40624C67.0869 7.17967 76.6963 18.2187 79.7041 31.8008C80.7979 36.7461 80.7979 43.8711 79.7041 48.8164C77.0205 60.9414 69.083 71.1055 58.1104 76.4648C54.208 78.3711 51.0439 79.3906 46.7627 80.1211C44.2744 80.543 38.4893 80.7109 35.9502 80.4336V80.4375ZM38.4307 44.1211V24.1797L33.0244 24.1133C26.8291 24.0469 24.9854 24.207 22.6064 24.9961C17.3955 26.7226 13.5518 30.8594 12.1807 36.2187C11.6221 38.3945 11.5439 41.6484 11.9971 43.707C13.2236 49.2656 17.2041 53.7226 22.6182 55.5976C24.251 56.164 24.6533 56.2305 26.7744 56.3008L29.126 56.375V50.7109L27.3057 50.6211C24.4189 50.4805 22.3877 49.582 20.3486 47.539C17.8838 45.0703 16.9111 41.5195 17.6885 37.8476C18.3096 34.9062 20.3486 32.3359 23.0986 31.0273C25.1182 30.0664 25.9502 29.9258 29.5752 29.9258H32.6689V46.9101C32.6689 56.2539 32.7236 63.9531 32.79 64.0195C32.8604 64.0859 34.1533 64.1211 35.6729 64.0937L38.4307 64.0273V44.0859V44.1211ZM55.1807 56.1601C60.708 55.2656 65.5361 51.5273 67.5244 46.6055C68.4463 44.3281 68.7002 42.957 68.7158 40.2226C68.7275 38.0781 68.6611 37.4023 68.3252 36.1562C67.0518 31.4219 63.9463 27.668 59.5908 25.6015C57.4736 24.5976 56.0674 24.2578 53.5361 24.1406L51.2705 24.043L51.3213 26.9492L51.3682 29.8515L53.4072 29.9609C55.6025 30.0742 56.4502 30.3086 57.9111 31.207C60.0752 32.5351 61.6924 34.4492 62.4932 36.6328C63.0088 38.039 63.1299 41.2969 62.7275 42.8945C62.0088 45.7656 60.1182 48.1094 57.4736 49.4219C55.5479 50.375 53.9189 50.668 50.4385 50.6719L47.7354 50.6797V16.4687H41.8877V56.3515H47.958C51.3525 56.3515 54.5361 56.2695 55.1807 56.164V56.1601Z" fill="var(--fill-0, #31B620)"/>
</g>
</svg>
