<svg preserveAspectRatio="none" width="100%" height="100%" overflow="visible" style="display: block;" viewBox="0 0 34.8323 35" fill="none" xmlns="http://www.w3.org/2000/svg">
<g id="Group">
<path id="Vector" fill-rule="evenodd" clip-rule="evenodd" d="M29.7588 5.08667C26.4833 1.80833 22.1288 0.00145833 17.4898 0C7.93042 0 0.150208 7.77875 0.145833 17.3425C0.144375 20.3992 0.943542 23.3829 2.46167 26.0137L0 35L9.19333 32.5879C11.7265 33.9704 14.579 34.6981 17.481 34.6996H17.4883C27.0463 34.6996 34.8279 26.9194 34.8323 17.3556C34.8352 12.7225 33.0327 8.36354 29.7588 5.08667ZM17.4898 31.7698H17.484C14.8969 31.7698 12.3608 31.0742 10.1471 29.7602L9.62062 29.4481L4.165 30.8788L5.62188 25.5587L5.27917 25.0133C3.83542 22.7179 3.07417 20.0652 3.07563 17.3425C3.07854 9.39458 9.54625 2.92833 17.4971 2.92833C21.3471 2.92833 24.9667 4.43042 27.6879 7.15458C30.4092 9.88021 31.9069 13.5013 31.9054 17.3527C31.901 25.3035 25.4348 31.7698 17.4898 31.7698ZM25.3969 20.9738C24.9638 20.7565 22.8331 19.7079 22.435 19.5635C22.0383 19.4192 21.7496 19.3463 21.4594 19.7794C21.1692 20.2125 20.3408 21.1896 20.0871 21.4798C19.8348 21.7685 19.581 21.805 19.1479 21.5877C18.7148 21.3704 17.3177 20.914 15.6625 19.4367C14.3748 18.2875 13.5042 16.8685 13.2519 16.434C12.9996 15.9994 13.2256 15.766 13.4415 15.5502C13.6369 15.3563 13.8746 15.0442 14.0919 14.7904C14.3106 14.5396 14.3821 14.3588 14.5279 14.0685C14.6723 13.7798 14.6008 13.526 14.4915 13.3088C14.3821 13.0929 13.5158 10.9594 13.1556 10.0917C12.8042 9.24583 12.4469 9.36104 12.18 9.34792C11.9277 9.33479 11.639 9.33333 11.3488 9.33333C11.06 9.33333 10.5904 9.44125 10.1937 9.87583C9.79708 10.3104 8.67708 11.359 8.67708 13.491C8.67708 15.6246 10.2302 17.6852 10.446 17.974C10.6619 18.2627 13.5012 22.6406 17.8485 24.5175C18.8825 24.9638 19.6904 25.2306 20.319 25.4304C21.3573 25.76 22.3023 25.7133 23.049 25.6025C23.8817 25.4785 25.6127 24.554 25.9744 23.5419C26.336 22.5298 26.336 21.6606 26.2267 21.4812C26.1188 21.299 25.83 21.191 25.3969 20.9738Z" fill="var(--fill-0, white)"/>
</g>
</svg>
