<svg preserveAspectRatio="none" width="100%" height="100%" overflow="visible" style="display: block;" viewBox="0 0 160 170" fill="none" xmlns="http://www.w3.org/2000/svg">
<g id="phone">
<g id="Rectangle 4" filter="url(#filter0_d_16_109)">
<rect x="50" y="30" width="60" height="70" rx="20" fill="var(--fill-0, #05735B)"/>
</g>
<path id="Vector" d="M81.9013 49.4607C81.9013 49.0739 82.055 48.703 82.3285 48.4295C82.602 48.156 82.9729 48.0023 83.3597 48.0023C87.2261 48.0066 90.933 49.5444 93.667 52.2784C96.4009 55.0124 97.9388 58.7192 97.943 62.5857C97.943 62.9724 97.7894 63.3434 97.5159 63.6169C97.2424 63.8904 96.8715 64.044 96.4847 64.044C96.0979 64.044 95.727 63.8904 95.4535 63.6169C95.18 63.3434 95.0263 62.9724 95.0263 62.5857C95.0229 59.4925 93.7926 56.5271 91.6054 54.3399C89.4182 52.1527 86.4528 50.9225 83.3597 50.919C82.9729 50.919 82.602 50.7654 82.3285 50.4919C82.055 50.2184 81.9013 49.8474 81.9013 49.4607V49.4607ZM83.3597 56.7523C84.9068 56.7523 86.3905 57.3669 87.4845 58.4609C88.5784 59.5548 89.193 61.0386 89.193 62.5857C89.193 62.9724 89.3467 63.3434 89.6201 63.6169C89.8936 63.8904 90.2646 64.044 90.6513 64.044C91.0381 64.044 91.4091 63.8904 91.6825 63.6169C91.956 63.3434 92.1097 62.9724 92.1097 62.5857C92.1074 60.2657 91.1847 58.0415 89.5443 56.401C87.9039 54.7606 85.6796 53.838 83.3597 53.8357C82.9729 53.8357 82.602 53.9893 82.3285 54.2628C82.055 54.5363 81.9013 54.9072 81.9013 55.294C81.9013 55.6808 82.055 56.0517 82.3285 56.3252C82.602 56.5987 82.9729 56.7523 83.3597 56.7523V56.7523ZM96.6203 72.4134C97.4654 73.2608 97.94 74.4088 97.94 75.6057C97.94 76.8025 97.4654 77.9505 96.6203 78.798L95.2932 80.3277C83.3495 91.7625 54.2849 62.7052 65.5432 50.7236L67.2203 49.2652C68.0687 48.4437 69.2065 47.9893 70.3874 48.0002C71.5683 48.0111 72.6974 48.4865 73.5305 49.3236C73.5757 49.3688 76.278 52.879 76.278 52.879C77.0798 53.7214 77.5262 54.8404 77.5243 56.0033C77.5224 57.1663 77.0724 58.2838 76.2678 59.1236L74.5791 61.2469C75.5136 63.5177 76.8877 65.5814 78.6223 67.3196C80.3569 69.0577 82.4179 70.4359 84.6868 71.375L86.8232 69.6761C87.6631 68.8721 88.7804 68.4226 89.943 68.421C91.1057 68.4194 92.2242 68.8657 93.0663 69.6673C93.0663 69.6673 96.5751 72.3682 96.6203 72.4134ZM94.6136 74.5338C94.6136 74.5338 91.1238 71.849 91.0786 71.8038C90.7782 71.5059 90.3722 71.3388 89.9492 71.3388C89.5261 71.3388 89.1201 71.5059 88.8197 71.8038C88.7803 71.8446 85.8388 74.1882 85.8388 74.1882C85.6406 74.3459 85.4047 74.4494 85.1544 74.4882C84.904 74.5271 84.6479 74.5001 84.4111 74.4098C81.4718 73.3155 78.802 71.6022 76.5826 69.386C74.3631 67.1698 72.6459 64.5025 71.5472 61.5648C71.4498 61.3249 71.418 61.0633 71.4552 60.807C71.4923 60.5507 71.5971 60.3089 71.7586 60.1065C71.7586 60.1065 74.1022 57.1636 74.1416 57.1257C74.4394 56.8252 74.6066 56.4193 74.6066 55.9962C74.6066 55.5731 74.4394 55.1671 74.1416 54.8667C74.0963 54.823 71.4116 51.3302 71.4116 51.3302C71.1066 51.0568 70.7086 50.9104 70.2992 50.921C69.8898 50.9315 69.4999 51.0983 69.2095 51.3871L67.5324 52.8455C59.3045 62.7388 84.4913 86.5286 93.1611 78.3357L94.4897 76.8044C94.801 76.516 94.988 76.1179 95.0111 75.6942C95.0343 75.2705 94.8917 74.8543 94.6136 74.5338V74.5338Z" fill="var(--fill-0, white)"/>
</g>
<defs>
<filter id="filter0_d_16_109" x="0" y="0" width="160" height="170" filterUnits="userSpaceOnUse" color-interpolation-filters="sRGB">
<feFlood flood-opacity="0" result="BackgroundImageFix"/>
<feColorMatrix in="SourceAlpha" type="matrix" values="0 0 0 0 0 0 0 0 0 0 0 0 0 0 0 0 0 0 127 0" result="hardAlpha"/>
<feMorphology radius="10" operator="dilate" in="SourceAlpha" result="effect1_dropShadow_16_109"/>
<feOffset dy="20"/>
<feGaussianBlur stdDeviation="20"/>
<feComposite in2="hardAlpha" operator="out"/>
<feColorMatrix type="matrix" values="0 0 0 0 0.220833 0 0 0 0 0.203351 0 0 0 0 0.203351 0 0 0 0.2 0"/>
<feBlend mode="normal" in2="BackgroundImageFix" result="effect1_dropShadow_16_109"/>
<feBlend mode="normal" in="SourceGraphic" in2="effect1_dropShadow_16_109" result="shape"/>
</filter>
</defs>
</svg>
