<svg preserveAspectRatio="none" width="100%" height="100%" overflow="visible" style="display: block;" viewBox="0 0 160 170" fill="none" xmlns="http://www.w3.org/2000/svg">
<g id="phone">
<g id="Rectangle 4" filter="url(#filter0_d_16_117)">
<rect x="50" y="30" width="60" height="70" rx="20" fill="var(--fill-0, #05735B)"/>
</g>
<path id="Vector" d="M90.2312 68.3886C89.1286 68.3895 88.0428 68.6587 87.0675 69.1729C86.0922 69.6871 85.2566 70.4309 84.6329 71.3401L75.1411 67.0543C75.8153 65.4264 75.8179 63.5978 75.1484 61.9679L84.6271 57.6602C85.5515 58.9971 86.9243 59.9584 88.4967 60.3697C90.0691 60.7811 91.7369 60.6152 93.1975 59.9023C94.6581 59.1893 95.8148 57.9765 96.4577 56.4838C97.1007 54.9911 97.1874 53.3173 96.702 51.7662C96.2167 50.2151 95.1914 48.8892 93.8123 48.0292C92.4331 47.1692 90.7914 46.832 89.185 47.0788C87.5785 47.3255 86.1137 48.1399 85.0562 49.3741C83.9987 50.6084 83.4186 52.1807 83.4211 53.806C83.4273 54.1907 83.4663 54.5742 83.5378 54.9522L73.4612 59.5312C72.4935 58.6244 71.2819 58.0202 69.9754 57.7926C68.6689 57.565 67.3243 57.724 66.107 58.25C64.8896 58.7761 63.8524 59.6463 63.1228 60.7537C62.3932 61.8612 62.0029 63.1576 62 64.4838C61.9971 65.8099 62.3816 67.1081 63.1064 68.2187C63.8311 69.3294 64.8645 70.2041 66.0795 70.7355C67.2946 71.2669 68.6384 71.4318 69.9459 71.2099C71.2534 70.9881 72.4676 70.3891 73.4394 69.4867L83.5422 74.0481C83.472 74.4258 83.4335 74.8087 83.427 75.1929C83.4267 76.539 83.8256 77.855 84.5733 78.9744C85.321 80.0939 86.3839 80.9664 87.6276 81.4817C88.8712 81.997 90.2397 82.1318 91.56 81.8693C92.8803 81.6067 94.0931 80.9585 95.045 80.0067C95.9969 79.0548 96.6451 77.842 96.9076 76.5217C97.1702 75.2014 97.0353 73.8328 96.52 72.5892C96.0047 71.3456 95.1322 70.2827 94.0128 69.535C92.8934 68.7873 91.5774 68.3883 90.2312 68.3886ZM90.2312 49.9169C91.0005 49.9166 91.7525 50.1444 92.3923 50.5716C93.0321 50.9988 93.5308 51.6061 93.8254 52.3167C94.1199 53.0273 94.1972 53.8094 94.0473 54.5639C93.8974 55.3184 93.5271 56.0115 92.9832 56.5556C92.4394 57.0996 91.7464 57.4702 90.9919 57.6204C90.2375 57.7706 89.4554 57.6936 88.7447 57.3993C88.0339 57.105 87.4264 56.6065 86.999 55.9669C86.5716 55.3273 86.3435 54.5753 86.3435 53.806C86.3443 52.7751 86.7541 51.7865 87.4829 51.0574C88.2118 50.3282 89.2002 49.918 90.2312 49.9169ZM68.8444 68.3886C68.0751 68.3889 67.3231 68.1611 66.6833 67.7339C66.0435 67.3067 65.5448 66.6994 65.2502 65.9888C64.9556 65.2782 64.8784 64.4961 65.0283 63.7416C65.1782 62.9871 65.5485 62.294 66.0924 61.7499C66.6362 61.2058 67.3292 60.8353 68.0837 60.6851C68.8381 60.5349 69.6202 60.6119 70.3309 60.9062C71.0417 61.2005 71.6492 61.699 72.0766 62.3386C72.504 62.9782 72.7321 63.7302 72.7321 64.4994C72.731 65.5303 72.321 66.5186 71.5922 67.2477C70.8634 67.9768 69.8753 68.3871 68.8444 68.3886ZM90.2312 79.082C89.462 79.082 88.7101 78.8539 88.0705 78.4266C87.4309 77.9992 86.9324 77.3918 86.6381 76.6812C86.3437 75.9705 86.2667 75.1885 86.4168 74.4341C86.5668 73.6797 86.9372 72.9867 87.4811 72.4428C88.025 71.8989 88.718 71.5285 89.4725 71.3784C90.2269 71.2283 91.0089 71.3054 91.7195 71.5997C92.4302 71.8941 93.0376 72.3926 93.4649 73.0321C93.8923 73.6717 94.1204 74.4236 94.1204 75.1929C94.1196 76.2241 93.7096 77.2129 92.9804 77.9421C92.2512 78.6713 91.2624 79.0813 90.2312 79.082Z" fill="var(--fill-0, white)"/>
</g>
<defs>
<filter id="filter0_d_16_117" x="0" y="0" width="160" height="170" filterUnits="userSpaceOnUse" color-interpolation-filters="sRGB">
<feFlood flood-opacity="0" result="BackgroundImageFix"/>
<feColorMatrix in="SourceAlpha" type="matrix" values="0 0 0 0 0 0 0 0 0 0 0 0 0 0 0 0 0 0 127 0" result="hardAlpha"/>
<feMorphology radius="10" operator="dilate" in="SourceAlpha" result="effect1_dropShadow_16_117"/>
<feOffset dy="20"/>
<feGaussianBlur stdDeviation="20"/>
<feComposite in2="hardAlpha" operator="out"/>
<feColorMatrix type="matrix" values="0 0 0 0 0.220833 0 0 0 0 0.203351 0 0 0 0 0.203351 0 0 0 0.2 0"/>
<feBlend mode="normal" in2="BackgroundImageFix" result="effect1_dropShadow_16_117"/>
<feBlend mode="normal" in="SourceGraphic" in2="effect1_dropShadow_16_117" result="shape"/>
</filter>
</defs>
</svg>
