<svg preserveAspectRatio="none" width="100%" height="100%" overflow="visible" style="display: block;" viewBox="0 0 110 18" fill="none" xmlns="http://www.w3.org/2000/svg">
<g id="Frame 1787">
<path id="Star 1" d="M9 0L11.9095 4.99537L17.5595 6.21885L13.7077 10.5296L14.2901 16.2812L9 13.95L3.70993 16.2812L4.29227 10.5296L0.440492 6.21885L6.09046 4.99537L9 0Z" fill="var(--fill-0, #FEC303)"/>
<path id="Star 2" d="M32 0L34.9095 4.99537L40.5595 6.21885L36.7077 10.5296L37.2901 16.2812L32 13.95L26.7099 16.2812L27.2923 10.5296L23.4405 6.21885L29.0905 4.99537L32 0Z" fill="var(--fill-0, #FEC303)"/>
<path id="Star 3" d="M55 0L57.9095 4.99537L63.5595 6.21885L59.7077 10.5296L60.2901 16.2812L55 13.95L49.7099 16.2812L50.2923 10.5296L46.4405 6.21885L52.0905 4.99537L55 0Z" fill="var(--fill-0, #FEC303)"/>
<path id="Star 4" d="M78 0L80.9095 4.99537L86.5595 6.21885L82.7077 10.5296L83.2901 16.2812L78 13.95L72.7099 16.2812L73.2923 10.5296L69.4405 6.21885L75.0905 4.99537L78 0Z" fill="var(--fill-0, #FEC303)"/>
<path id="Star 5" d="M101 0L103.91 4.99537L109.56 6.21885L105.708 10.5296L106.29 16.2812L101 13.95L95.7099 16.2812L96.2923 10.5296L92.4405 6.21885L98.0905 4.99537L101 0Z" fill="var(--fill-0, #FEC303)"/>
</g>
</svg>
