<svg width="32" height="32" viewBox="0 0 32 32" fill="none" xmlns="http://www.w3.org/2000/svg">
<g id="SERVICE">
<g id="Group 10782">
<g id="hugeicons:web-design-02">
<g id="Group">
<path id="Vector" d="M26.6665 13.5041C26.6665 8.39475 26.6665 5.84141 25.1038 4.25341C23.5412 2.66541 21.0278 2.66675 15.9998 2.66675H13.3332C8.30517 2.66675 5.7905 2.66675 4.22917 4.25341C2.66784 5.84008 2.6665 8.39475 2.6665 13.5041C2.6665 18.6134 2.6665 21.1667 4.22917 22.7547C4.85584 23.3907 5.6345 23.7721 6.6665 24.0001" stroke="white" stroke-width="2" stroke-linecap="round"/>
<path id="Vector_2" d="M29.3332 23.3335C29.3332 20.8335 29.3332 19.5842 28.6972 18.7068C28.4916 18.4239 28.2428 18.1751 27.9598 17.9695C27.0825 17.3335 25.8332 17.3335 23.3332 17.3335H16.6665C14.1665 17.3335 12.9172 17.3335 12.0398 17.9695C11.7569 18.1751 11.5081 18.4239 11.3025 18.7068C10.6665 19.5855 10.6665 20.8348 10.6665 23.3335C10.6665 25.8322 10.6665 27.0828 11.3025 27.9602C11.5085 28.2432 11.7578 28.492 12.0412 28.6975C12.9172 29.3335 14.1665 29.3335 16.6665 29.3335H23.3332C25.8332 29.3335 27.0825 29.3335 27.9598 28.6975C28.2428 28.4919 28.4916 28.2431 28.6972 27.9602C29.3332 27.0828 29.3332 25.8335 29.3332 23.3335Z" stroke="white" stroke-width="2"/>
<path id="Vector_3" d="M22.0002 21.3333L23.2268 22.3907C23.7428 22.8347 24.0002 23.0573 24.0002 23.3333C24.0002 23.6093 23.7428 23.832 23.2268 24.276L22.0002 25.3333M18.0002 21.3333L16.7735 22.3907C16.2575 22.8347 16.0002 23.0573 16.0002 23.3333C16.0002 23.6093 16.2575 23.832 16.7735 24.276L18.0002 25.3333M3.3335 8H26.0002" stroke="white" stroke-width="2" stroke-linecap="round" stroke-linejoin="round"/>
</g>
</g>
</g>
</g>
</svg>
