<svg preserveAspectRatio="none" width="100%" height="100%" overflow="visible" style="display: block;" viewBox="0 0 28.6668 28.6669" fill="none" xmlns="http://www.w3.org/2000/svg">
<g id="Group">
<path id="Vector" d="M22.3335 22.3334C25.279 22.3334 27.6668 17.5577 27.6668 11.6667C27.6668 5.77567 25.279 1.00004 22.3335 1.00004C19.388 1.00004 17.0002 5.77567 17.0002 11.6667C17.0002 17.5577 19.388 22.3334 22.3335 22.3334Z" stroke="var(--stroke-0, white)" stroke-width="2"/>
<path id="Vector_2" d="M22.3333 1C18.196 1 9.62 4.17067 4.69467 6.13867C2.43867 7.04 1 9.23733 1 11.6667C1 14.096 2.44 16.2933 4.69467 17.1947C9.62 19.1627 18.196 22.3333 22.3333 22.3333" stroke="var(--stroke-0, white)" stroke-width="2"/>
<path id="Vector_3" d="M12.9998 27.6667L10.4091 26.24C9.02604 25.4746 7.90415 24.3121 7.18828 22.9027C6.47241 21.4934 6.19545 19.9017 6.39313 18.3334" stroke="var(--stroke-0, white)" stroke-width="2" stroke-linecap="round" stroke-linejoin="round"/>
</g>
</svg>
