<svg width="32" height="32" viewBox="0 0 32 32" fill="none" xmlns="http://www.w3.org/2000/svg">
<g id="SERVICE">
<g id="Group 10779">
<g id="fluent:design-ideas-16-regular">
<path id="Vector" d="M8.456 12.9841C9.04 13.5761 9.38 14.35 9.59 15.1241C10 16.628 10 18.4881 10 19.9261V20.0001C10 24.1161 9.23 26.5601 8.358 28.0141C8.0276 28.5859 7.59511 29.0923 7.082 29.5081C6.87789 29.666 6.65647 29.8002 6.422 29.9081C6.422 29.9081 6.168 30.0001 6 30.0001C5.85582 29.9886 5.71386 29.9577 5.578 29.9081C5.34353 29.8002 5.12211 29.666 4.918 29.5081C4.40489 29.0923 3.9724 28.5859 3.642 28.0141C2.77 26.5621 2 24.1161 2 20.0001V19.9281C2 18.4881 2 16.6301 2.41 15.1221C2.62 14.35 2.96 13.5761 3.544 12.9821C2.6 12.0881 2 10.6641 2 9.00005C2 8.34805 2.174 7.57005 2.414 6.85205C2.654 6.13405 2.99 5.38805 3.378 4.78805C3.84 4.00805 4.49 3.35405 4.994 2.91405C5.27133 2.67226 5.55964 2.44335 5.858 2.22805L5.918 2.18805L5.936 2.17405L5.942 2.17005L5.946 2.16805C6.12946 2.04319 6.34924 1.9829 6.57073 1.99668C6.79222 2.01046 7.00284 2.09752 7.16941 2.24416C7.33598 2.3908 7.44904 2.58868 7.49079 2.80663C7.53253 3.02459 7.5006 3.25024 7.4 3.44805C7.38244 3.50574 7.37367 3.56575 7.374 3.62605C7.374 3.75205 7.406 3.99205 7.708 4.29205C7.854 4.43805 7.966 4.54205 8.088 4.65605C8.188 4.74805 8.294 4.84405 8.428 4.97605C8.688 5.22405 8.962 5.51605 9.208 5.88205C9.718 6.64805 10 7.60605 10 9.00005C10 10.6641 9.4 12.0861 8.456 12.9841ZM6 14.0001C5.5 14.0001 5.2 14.1561 4.974 14.3801C4.722 14.6341 4.504 15.0461 4.34 15.6481C4.008 16.8701 4 18.4741 4 20.0001C4 23.8841 4.73 25.9401 5.358 26.9861C5.598 27.3861 5.824 27.6441 6 27.8061C6.25261 27.5653 6.46888 27.2891 6.642 26.9861C7.27 25.9381 8 23.8841 8 20.0001C8 18.4741 7.992 16.8701 7.66 15.6481C7.496 15.048 7.278 14.6341 7.026 14.3801C6.8 14.1561 6.498 14.0001 6 14.0001ZM4 9.00005C4 11.1441 5.23 12.0001 6 12.0001C6.77 12.0001 8 11.1441 8 9.00005C8 7.89405 7.782 7.35205 7.542 6.99205C7.39569 6.78209 7.2274 6.58833 7.04 6.41405L6.792 6.18205C6.62262 6.02693 6.45593 5.86891 6.292 5.70805C6.07382 5.49109 5.88611 5.24551 5.734 4.97805C5.47951 5.24581 5.25548 5.54094 5.066 5.85805C4.786 6.28805 4.514 6.87805 4.312 7.48605C4.104 8.10605 4 8.65405 4 9.00005ZM13.996 21.9461C13.3027 21.8687 12.6208 21.7109 11.964 21.4761C11.988 20.9747 12 20.4561 12 19.9201V19.3281C12.62 19.6221 13.292 19.8281 13.996 19.9281V16.0001C13.996 14.9392 14.4174 13.9218 15.1676 13.1716C15.9177 12.4215 16.9351 12.0001 17.996 12.0001H21.926C21.7669 10.8942 21.3455 9.84256 20.6969 8.93291C20.0483 8.02327 19.1914 7.28207 18.1978 6.77128C17.2042 6.26049 16.1028 5.99493 14.9856 5.9968C13.8684 5.99868 12.7679 6.26793 11.776 6.78205C11.6189 6.1282 11.3597 5.5032 11.008 4.93005C12.3043 4.28942 13.7358 3.97054 15.1814 4.00039C16.627 4.03025 18.0441 4.40797 19.3128 5.10157C20.5815 5.79517 21.6644 6.78425 22.4699 7.98505C23.2753 9.18586 23.7796 10.5631 23.94 12.0001H25.994C27.0549 12.0001 28.0723 12.4215 28.8224 13.1716C29.5726 13.9218 29.994 14.9392 29.994 16.0001V24.0001C29.994 25.0609 29.5726 26.0783 28.8224 26.8285C28.0723 27.5786 27.0549 28.0001 25.994 28.0001H17.994C16.9331 28.0001 15.9157 27.5786 15.1656 26.8285C14.4154 26.0783 13.994 25.0609 13.994 24.0001L13.996 21.9461ZM23.942 14.0001C23.7155 16.0295 22.8055 17.9216 21.3615 19.3656C19.9176 20.8095 18.0255 21.7195 15.996 21.9461V24.0001C15.996 24.5305 16.2067 25.0392 16.5818 25.4143C16.9569 25.7893 17.4656 26.0001 17.996 26.0001H25.996C26.5264 26.0001 27.0351 25.7893 27.4102 25.4143C27.7853 25.0392 27.996 24.5305 27.996 24.0001V16.0001C27.996 15.4696 27.7853 14.9609 27.4102 14.5858C27.0351 14.2108 26.5264 14.0001 25.996 14.0001H23.942ZM21.926 14.0001H17.996C17.4656 14.0001 16.9569 14.2108 16.5818 14.5858C16.2067 14.9609 15.996 15.4696 15.996 16.0001V19.9301C17.4922 19.7144 18.8784 19.0203 19.9473 17.9514C21.0162 16.8825 21.7104 15.4963 21.926 14.0001Z" fill="white"/>
</g>
</g>
</g>
</svg>
